%TF.GenerationSoftware,KiCad,Pcbnew,5.1.6-1.fc32*%
%TF.CreationDate,2020-07-09T19:36:08-05:00*%
%TF.ProjectId,source_pad,736f7572-6365-45f7-9061-642e6b696361,rev?*%
%TF.SameCoordinates,Original*%
%TF.FileFunction,Soldermask,Bot*%
%TF.FilePolarity,Negative*%
%FSLAX46Y46*%
G04 Gerber Fmt 4.6, Leading zero omitted, Abs format (unit mm)*
G04 Created by KiCad (PCBNEW 5.1.6-1.fc32) date 2020-07-09 19:36:08*
%MOMM*%
%LPD*%
G01*
G04 APERTURE LIST*
%ADD10C,4.100000*%
%ADD11C,2.000000*%
%ADD12O,2.600000X2.100000*%
%ADD13C,0.800000*%
%ADD14C,4.500000*%
%ADD15R,1.400000X1.050000*%
%ADD16C,1.497000*%
%ADD17R,1.497000X1.497000*%
%ADD18C,1.624000*%
G04 APERTURE END LIST*
D10*
%TO.C,SW6*%
X119000000Y-138000000D03*
D11*
X113500000Y-138000000D03*
X124500000Y-138000000D03*
D12*
X121540000Y-132920000D03*
X115190000Y-135460000D03*
%TD*%
D13*
%TO.C,REF\u002A\u002A*%
X91166726Y-146833274D03*
X90000000Y-146350000D03*
X88833274Y-146833274D03*
X88350000Y-148000000D03*
X88833274Y-149166726D03*
X90000000Y-149650000D03*
X91166726Y-149166726D03*
X91650000Y-148000000D03*
D14*
X90000000Y-148000000D03*
%TD*%
D13*
%TO.C,REF\u002A\u002A*%
X149166726Y-146833274D03*
X148000000Y-146350000D03*
X146833274Y-146833274D03*
X146350000Y-148000000D03*
X146833274Y-149166726D03*
X148000000Y-149650000D03*
X149166726Y-149166726D03*
X149650000Y-148000000D03*
D14*
X148000000Y-148000000D03*
%TD*%
D13*
%TO.C,REF\u002A\u002A*%
X149166726Y-88833274D03*
X148000000Y-88350000D03*
X146833274Y-88833274D03*
X146350000Y-90000000D03*
X146833274Y-91166726D03*
X148000000Y-91650000D03*
X149166726Y-91166726D03*
X149650000Y-90000000D03*
D14*
X148000000Y-90000000D03*
%TD*%
D13*
%TO.C,REF\u002A\u002A*%
X91166726Y-88833274D03*
X90000000Y-88350000D03*
X88833274Y-88833274D03*
X88350000Y-90000000D03*
X88833274Y-91166726D03*
X90000000Y-91650000D03*
X91166726Y-91166726D03*
X91650000Y-90000000D03*
D14*
X90000000Y-90000000D03*
%TD*%
D12*
%TO.C,SW1*%
X96190000Y-97460000D03*
X102540000Y-94920000D03*
D11*
X105500000Y-100000000D03*
X94500000Y-100000000D03*
D10*
X100000000Y-100000000D03*
%TD*%
%TO.C,SW2*%
X100000000Y-119000000D03*
D11*
X94500000Y-119000000D03*
X105500000Y-119000000D03*
D12*
X102540000Y-113920000D03*
X96190000Y-116460000D03*
%TD*%
D10*
%TO.C,SW3*%
X100000000Y-138000000D03*
D11*
X94500000Y-138000000D03*
X105500000Y-138000000D03*
D12*
X102540000Y-132920000D03*
X96190000Y-135460000D03*
%TD*%
%TO.C,SW4*%
X115190000Y-97460000D03*
X121540000Y-94920000D03*
D11*
X124500000Y-100000000D03*
X113500000Y-100000000D03*
D10*
X119000000Y-100000000D03*
%TD*%
%TO.C,SW5*%
X119000000Y-119000000D03*
D11*
X113500000Y-119000000D03*
X124500000Y-119000000D03*
D12*
X121540000Y-113920000D03*
X115190000Y-116460000D03*
%TD*%
D10*
%TO.C,SW7*%
X138000000Y-100000000D03*
D11*
X132500000Y-100000000D03*
X143500000Y-100000000D03*
D12*
X140540000Y-94920000D03*
X134190000Y-97460000D03*
%TD*%
%TO.C,SW8*%
X134190000Y-116460000D03*
X140540000Y-113920000D03*
D11*
X143500000Y-119000000D03*
X132500000Y-119000000D03*
D10*
X138000000Y-119000000D03*
%TD*%
D12*
%TO.C,SW9*%
X134190000Y-135460000D03*
X140540000Y-132920000D03*
D11*
X143500000Y-138000000D03*
X132500000Y-138000000D03*
D10*
X138000000Y-138000000D03*
%TD*%
D15*
%TO.C,D1*%
X98225000Y-109500000D03*
D16*
X96190000Y-109500000D03*
D17*
X103810000Y-109500000D03*
D15*
X101775000Y-109500000D03*
%TD*%
%TO.C,D2*%
X98225000Y-128500000D03*
D16*
X96190000Y-128500000D03*
D17*
X103810000Y-128500000D03*
D15*
X101775000Y-128500000D03*
%TD*%
%TO.C,D3*%
X101775000Y-147500000D03*
D17*
X103810000Y-147500000D03*
D16*
X96190000Y-147500000D03*
D15*
X98225000Y-147500000D03*
%TD*%
%TO.C,D4*%
X120775000Y-109500000D03*
D17*
X122810000Y-109500000D03*
D16*
X115190000Y-109500000D03*
D15*
X117225000Y-109500000D03*
%TD*%
%TO.C,D5*%
X120775000Y-128500000D03*
D17*
X122810000Y-128500000D03*
D16*
X115190000Y-128500000D03*
D15*
X117225000Y-128500000D03*
%TD*%
%TO.C,D6*%
X117225000Y-147500000D03*
D16*
X115190000Y-147500000D03*
D17*
X122810000Y-147500000D03*
D15*
X120775000Y-147500000D03*
%TD*%
%TO.C,D7*%
X136225000Y-109500000D03*
D16*
X134190000Y-109500000D03*
D17*
X141810000Y-109500000D03*
D15*
X139775000Y-109500000D03*
%TD*%
%TO.C,D8*%
X139775000Y-128500000D03*
D17*
X141810000Y-128500000D03*
D16*
X134190000Y-128500000D03*
D15*
X136225000Y-128500000D03*
%TD*%
%TO.C,D9*%
X139775000Y-147500000D03*
D17*
X141810000Y-147500000D03*
D16*
X134190000Y-147500000D03*
D15*
X136225000Y-147500000D03*
%TD*%
D18*
%TO.C,U1*%
X111388600Y-88622000D03*
X111388600Y-91162000D03*
X111388600Y-93702000D03*
X111388600Y-96242000D03*
X111388600Y-98782000D03*
X111388600Y-101322000D03*
X111388600Y-103862000D03*
X111388600Y-106402000D03*
X111388600Y-108942000D03*
X111388600Y-111482000D03*
X111388600Y-114022000D03*
X111388600Y-116562000D03*
X126608600Y-116562000D03*
X126608600Y-114022000D03*
X126608600Y-111482000D03*
X126608600Y-108942000D03*
X126608600Y-106402000D03*
X126608600Y-103862000D03*
X126608600Y-101322000D03*
X126608600Y-98782000D03*
X126608600Y-96242000D03*
X126608600Y-93702000D03*
X126608600Y-91162000D03*
X126608600Y-88622000D03*
%TD*%
M02*
