M48
; DRILL file {KiCad 5.1.6-1.fc32} date Thu Jul  9 19:55:33 2020
; FORMAT={-:-/ absolute / metric / decimal}
; #@! TF.CreationDate,2020-07-09T19:55:33-05:00
; #@! TF.GenerationSoftware,Kicad,Pcbnew,5.1.6-1.fc32
; #@! TF.FileFunction,Plated,1,2,PTH
FMAT,2
METRIC
T1C0.400
T2C0.800
T3C0.813
T4C2.200
%
G90
G05
T1
X88.35Y-90.0
X88.833Y-88.833
X88.833Y-91.167
X90.0Y-88.35
X90.0Y-91.65
X91.167Y-88.833
X91.167Y-91.167
X91.65Y-90.0
X88.35Y-148.0
X88.833Y-146.833
X88.833Y-149.167
X90.0Y-146.35
X90.0Y-149.65
X91.167Y-146.833
X91.167Y-149.167
X91.65Y-148.0
X146.35Y-90.0
X146.833Y-88.833
X146.833Y-91.167
X148.0Y-88.35
X148.0Y-91.65
X149.167Y-88.833
X149.167Y-91.167
X149.65Y-90.0
X146.35Y-148.0
X146.833Y-146.833
X146.833Y-149.167
X148.0Y-146.35
X148.0Y-149.65
X149.167Y-146.833
X149.167Y-149.167
X149.65Y-148.0
T3
X115.19Y-147.5
X122.81Y-147.5
X134.19Y-147.5
X141.81Y-147.5
X96.19Y-128.5
X103.81Y-128.5
X115.19Y-128.5
X122.81Y-128.5
X134.19Y-109.5
X141.81Y-109.5
X111.389Y-88.622
X111.389Y-91.162
X111.389Y-93.702
X111.389Y-96.242
X111.389Y-98.782
X111.389Y-101.322
X111.389Y-103.862
X111.389Y-106.402
X111.389Y-108.942
X111.389Y-111.482
X111.389Y-114.022
X111.389Y-116.562
X126.609Y-88.622
X126.609Y-91.162
X126.609Y-93.702
X126.609Y-96.242
X126.609Y-98.782
X126.609Y-101.322
X126.609Y-103.862
X126.609Y-106.402
X126.609Y-108.942
X126.609Y-111.482
X126.609Y-114.022
X126.609Y-116.562
X134.19Y-128.5
X141.81Y-128.5
X96.19Y-147.5
X103.81Y-147.5
X115.19Y-109.5
X122.81Y-109.5
X96.19Y-109.5
X103.81Y-109.5
T4
X90.0Y-90.0
X90.0Y-148.0
X148.0Y-90.0
X148.0Y-148.0
T2
G00X95.99Y-116.46
M15
G01X96.39Y-116.46
M16
G05
G00X102.34Y-113.92
M15
G01X102.74Y-113.92
M16
G05
G00X133.99Y-116.46
M15
G01X134.39Y-116.46
M16
G05
G00X140.34Y-113.92
M15
G01X140.74Y-113.92
M16
G05
G00X133.99Y-135.46
M15
G01X134.39Y-135.46
M16
G05
G00X140.34Y-132.92
M15
G01X140.74Y-132.92
M16
G05
G00X114.99Y-97.46
M15
G01X115.39Y-97.46
M16
G05
G00X121.34Y-94.92
M15
G01X121.74Y-94.92
M16
G05
G00X133.99Y-97.46
M15
G01X134.39Y-97.46
M16
G05
G00X140.34Y-94.92
M15
G01X140.74Y-94.92
M16
G05
G00X114.99Y-135.46
M15
G01X115.39Y-135.46
M16
G05
G00X121.34Y-132.92
M15
G01X121.74Y-132.92
M16
G05
G00X114.99Y-116.46
M15
G01X115.39Y-116.46
M16
G05
G00X121.34Y-113.92
M15
G01X121.74Y-113.92
M16
G05
G00X95.99Y-97.46
M15
G01X96.39Y-97.46
M16
G05
G00X102.34Y-94.92
M15
G01X102.74Y-94.92
M16
G05
G00X95.99Y-135.46
M15
G01X96.39Y-135.46
M16
G05
G00X102.34Y-132.92
M15
G01X102.74Y-132.92
M16
G05
T0
M30
