%FSLAX45Y45*%
G04 Gerber Fmt 4.5, Leading zero omitted, Abs format (unit mm)*
G04 Created by KiCad (PCBNEW 5.1.6-1.fc32) date 2020-07-09 20:52:14*
%MOMM*%
%LPD*%
G01*
G04 APERTURE LIST*
%TA.AperFunction,Profile*%
%ADD10C,0.050000*%
%TD*%
%ADD11C,0.200000*%
%ADD12C,0.300000*%
G04 APERTURE END LIST*
D10*
X8500000Y-14900000D02*
X8500000Y-8900000D01*
X14900000Y-15300000D02*
X8900000Y-15300000D01*
X15300000Y-8900000D02*
X15300000Y-14900000D01*
X8900000Y-8500000D02*
X14900000Y-8500000D01*
X8500000Y-8900000D02*
G75*
G02*
X8900000Y-8500000I400000J0D01*
G01*
X8900000Y-15300000D02*
G75*
G02*
X8500000Y-14900000I0J400000D01*
G01*
X15300000Y-14900000D02*
G75*
G02*
X14900000Y-15300000I-400000J0D01*
G01*
X14900000Y-8500000D02*
G75*
G02*
X15300000Y-8900000I0J-400000D01*
G01*
D11*
X9096673Y-9096673D02*
X9136673Y-9136673D01*
X9136673Y-9096673D02*
X9096673Y-9136673D01*
X9145000Y-8980000D02*
X9185000Y-9020000D01*
X9185000Y-8980000D02*
X9145000Y-9020000D01*
X14615000Y-14780000D02*
X14655000Y-14820000D01*
X14655000Y-14780000D02*
X14615000Y-14820000D01*
X14663327Y-14896673D02*
X14703327Y-14936673D01*
X14703327Y-14896673D02*
X14663327Y-14936673D01*
X14615000Y-8980000D02*
X14655000Y-9020000D01*
X14655000Y-8980000D02*
X14615000Y-9020000D01*
X14663327Y-8863327D02*
X14703327Y-8903327D01*
X14703327Y-8863327D02*
X14663327Y-8903327D01*
X14663327Y-9096673D02*
X14703327Y-9136673D01*
X14703327Y-9096673D02*
X14663327Y-9136673D01*
X14780000Y-8815000D02*
X14820000Y-8855000D01*
X14820000Y-8815000D02*
X14780000Y-8855000D01*
X14780000Y-9145000D02*
X14820000Y-9185000D01*
X14820000Y-9145000D02*
X14780000Y-9185000D01*
X14896673Y-8863327D02*
X14936673Y-8903327D01*
X14936673Y-8863327D02*
X14896673Y-8903327D01*
X14896673Y-9096673D02*
X14936673Y-9136673D01*
X14936673Y-9096673D02*
X14896673Y-9136673D01*
X14945000Y-8980000D02*
X14985000Y-9020000D01*
X14985000Y-8980000D02*
X14945000Y-9020000D01*
X8815000Y-14780000D02*
X8855000Y-14820000D01*
X8855000Y-14780000D02*
X8815000Y-14820000D01*
X8863327Y-14663327D02*
X8903327Y-14703327D01*
X8903327Y-14663327D02*
X8863327Y-14703327D01*
X8863327Y-14896673D02*
X8903327Y-14936673D01*
X8903327Y-14896673D02*
X8863327Y-14936673D01*
X8980000Y-14615000D02*
X9020000Y-14655000D01*
X9020000Y-14615000D02*
X8980000Y-14655000D01*
X8980000Y-14945000D02*
X9020000Y-14985000D01*
X9020000Y-14945000D02*
X8980000Y-14985000D01*
X9096673Y-14663327D02*
X9136673Y-14703327D01*
X9136673Y-14663327D02*
X9096673Y-14703327D01*
X9096673Y-14896673D02*
X9136673Y-14936673D01*
X9136673Y-14896673D02*
X9096673Y-14936673D01*
X9145000Y-14780000D02*
X9185000Y-14820000D01*
X9185000Y-14780000D02*
X9145000Y-14820000D01*
X8815000Y-8980000D02*
X8855000Y-9020000D01*
X8855000Y-8980000D02*
X8815000Y-9020000D01*
X8863327Y-8863327D02*
X8903327Y-8903327D01*
X8903327Y-8863327D02*
X8863327Y-8903327D01*
X8863327Y-9096673D02*
X8903327Y-9136673D01*
X8903327Y-9096673D02*
X8863327Y-9136673D01*
X8980000Y-8815000D02*
X9020000Y-8855000D01*
X9020000Y-8815000D02*
X8980000Y-8855000D01*
X8980000Y-9145000D02*
X9020000Y-9185000D01*
X9020000Y-9145000D02*
X8980000Y-9185000D01*
X9096673Y-8863327D02*
X9136673Y-8903327D01*
X9136673Y-8863327D02*
X9096673Y-8903327D01*
X14663327Y-14663327D02*
X14703327Y-14703327D01*
X14703327Y-14663327D02*
X14663327Y-14703327D01*
X14780000Y-14615000D02*
X14820000Y-14655000D01*
X14820000Y-14615000D02*
X14780000Y-14655000D01*
X14780000Y-14945000D02*
X14820000Y-14985000D01*
X14820000Y-14945000D02*
X14780000Y-14985000D01*
X14896673Y-14663327D02*
X14936673Y-14703327D01*
X14936673Y-14663327D02*
X14896673Y-14703327D01*
X14896673Y-14896673D02*
X14936673Y-14936673D01*
X14936673Y-14896673D02*
X14896673Y-14936673D01*
X14945000Y-14780000D02*
X14985000Y-14820000D01*
X14985000Y-14780000D02*
X14945000Y-14820000D01*
X14910000Y-9000000D02*
G75*
G03*
X14910000Y-9000000I-110000J0D01*
G01*
X9110000Y-14800000D02*
G75*
G03*
X9110000Y-14800000I-110000J0D01*
G01*
X9110000Y-9000000D02*
G75*
G03*
X9110000Y-9000000I-110000J0D01*
G01*
X14910000Y-14800000D02*
G75*
G03*
X14910000Y-14800000I-110000J0D01*
G01*
D12*
X8783928Y-15768214D02*
X8783928Y-15468214D01*
X8855357Y-15468214D01*
X8898214Y-15482500D01*
X8926786Y-15511071D01*
X8941071Y-15539643D01*
X8955357Y-15596786D01*
X8955357Y-15639643D01*
X8941071Y-15696786D01*
X8926786Y-15725357D01*
X8898214Y-15753929D01*
X8855357Y-15768214D01*
X8783928Y-15768214D01*
X9083928Y-15768214D02*
X9083928Y-15568214D01*
X9083928Y-15625357D02*
X9098214Y-15596786D01*
X9112500Y-15582500D01*
X9141071Y-15568214D01*
X9169643Y-15568214D01*
X9269643Y-15768214D02*
X9269643Y-15568214D01*
X9269643Y-15468214D02*
X9255357Y-15482500D01*
X9269643Y-15496786D01*
X9283928Y-15482500D01*
X9269643Y-15468214D01*
X9269643Y-15496786D01*
X9455357Y-15768214D02*
X9426786Y-15753929D01*
X9412500Y-15725357D01*
X9412500Y-15468214D01*
X9612500Y-15768214D02*
X9583928Y-15753929D01*
X9569643Y-15725357D01*
X9569643Y-15468214D01*
X9955357Y-15768214D02*
X9955357Y-15468214D01*
X10055357Y-15682500D01*
X10155357Y-15468214D01*
X10155357Y-15768214D01*
X10426786Y-15768214D02*
X10426786Y-15611071D01*
X10412500Y-15582500D01*
X10383928Y-15568214D01*
X10326786Y-15568214D01*
X10298214Y-15582500D01*
X10426786Y-15753929D02*
X10398214Y-15768214D01*
X10326786Y-15768214D01*
X10298214Y-15753929D01*
X10283928Y-15725357D01*
X10283928Y-15696786D01*
X10298214Y-15668214D01*
X10326786Y-15653929D01*
X10398214Y-15653929D01*
X10426786Y-15639643D01*
X10569643Y-15568214D02*
X10569643Y-15868214D01*
X10569643Y-15582500D02*
X10598214Y-15568214D01*
X10655357Y-15568214D01*
X10683928Y-15582500D01*
X10698214Y-15596786D01*
X10712500Y-15625357D01*
X10712500Y-15711071D01*
X10698214Y-15739643D01*
X10683928Y-15753929D01*
X10655357Y-15768214D01*
X10598214Y-15768214D01*
X10569643Y-15753929D01*
X10841071Y-15739643D02*
X10855357Y-15753929D01*
X10841071Y-15768214D01*
X10826786Y-15753929D01*
X10841071Y-15739643D01*
X10841071Y-15768214D01*
X10841071Y-15582500D02*
X10855357Y-15596786D01*
X10841071Y-15611071D01*
X10826786Y-15596786D01*
X10841071Y-15582500D01*
X10841071Y-15611071D01*
X8457500Y-16242500D02*
X8497500Y-16282500D01*
X8497500Y-16242500D02*
X8457500Y-16282500D01*
X8841071Y-16098214D02*
X8869643Y-16098214D01*
X8898214Y-16112500D01*
X8912500Y-16126786D01*
X8926786Y-16155357D01*
X8941071Y-16212500D01*
X8941071Y-16283929D01*
X8926786Y-16341071D01*
X8912500Y-16369643D01*
X8898214Y-16383929D01*
X8869643Y-16398214D01*
X8841071Y-16398214D01*
X8812500Y-16383929D01*
X8798214Y-16369643D01*
X8783928Y-16341071D01*
X8769643Y-16283929D01*
X8769643Y-16212500D01*
X8783928Y-16155357D01*
X8798214Y-16126786D01*
X8812500Y-16112500D01*
X8841071Y-16098214D01*
X9069643Y-16369643D02*
X9083928Y-16383929D01*
X9069643Y-16398214D01*
X9055357Y-16383929D01*
X9069643Y-16369643D01*
X9069643Y-16398214D01*
X9341071Y-16198214D02*
X9341071Y-16398214D01*
X9269643Y-16083929D02*
X9198214Y-16298214D01*
X9383928Y-16298214D01*
X9555357Y-16098214D02*
X9583928Y-16098214D01*
X9612500Y-16112500D01*
X9626786Y-16126786D01*
X9641071Y-16155357D01*
X9655357Y-16212500D01*
X9655357Y-16283929D01*
X9641071Y-16341071D01*
X9626786Y-16369643D01*
X9612500Y-16383929D01*
X9583928Y-16398214D01*
X9555357Y-16398214D01*
X9526786Y-16383929D01*
X9512500Y-16369643D01*
X9498214Y-16341071D01*
X9483928Y-16283929D01*
X9483928Y-16212500D01*
X9498214Y-16155357D01*
X9512500Y-16126786D01*
X9526786Y-16112500D01*
X9555357Y-16098214D01*
X9783928Y-16398214D02*
X9783928Y-16198214D01*
X9783928Y-16226786D02*
X9798214Y-16212500D01*
X9826786Y-16198214D01*
X9869643Y-16198214D01*
X9898214Y-16212500D01*
X9912500Y-16241071D01*
X9912500Y-16398214D01*
X9912500Y-16241071D02*
X9926786Y-16212500D01*
X9955357Y-16198214D01*
X9998214Y-16198214D01*
X10026786Y-16212500D01*
X10041071Y-16241071D01*
X10041071Y-16398214D01*
X10183928Y-16398214D02*
X10183928Y-16198214D01*
X10183928Y-16226786D02*
X10198214Y-16212500D01*
X10226786Y-16198214D01*
X10269643Y-16198214D01*
X10298214Y-16212500D01*
X10312500Y-16241071D01*
X10312500Y-16398214D01*
X10312500Y-16241071D02*
X10326786Y-16212500D01*
X10355357Y-16198214D01*
X10398214Y-16198214D01*
X10426786Y-16212500D01*
X10441071Y-16241071D01*
X10441071Y-16398214D01*
X11026786Y-16083929D02*
X10769643Y-16469643D01*
X11412500Y-16098214D02*
X11441071Y-16098214D01*
X11469643Y-16112500D01*
X11483928Y-16126786D01*
X11498214Y-16155357D01*
X11512500Y-16212500D01*
X11512500Y-16283929D01*
X11498214Y-16341071D01*
X11483928Y-16369643D01*
X11469643Y-16383929D01*
X11441071Y-16398214D01*
X11412500Y-16398214D01*
X11383928Y-16383929D01*
X11369643Y-16369643D01*
X11355357Y-16341071D01*
X11341071Y-16283929D01*
X11341071Y-16212500D01*
X11355357Y-16155357D01*
X11369643Y-16126786D01*
X11383928Y-16112500D01*
X11412500Y-16098214D01*
X11641071Y-16369643D02*
X11655357Y-16383929D01*
X11641071Y-16398214D01*
X11626786Y-16383929D01*
X11641071Y-16369643D01*
X11641071Y-16398214D01*
X11841071Y-16098214D02*
X11869643Y-16098214D01*
X11898214Y-16112500D01*
X11912500Y-16126786D01*
X11926786Y-16155357D01*
X11941071Y-16212500D01*
X11941071Y-16283929D01*
X11926786Y-16341071D01*
X11912500Y-16369643D01*
X11898214Y-16383929D01*
X11869643Y-16398214D01*
X11841071Y-16398214D01*
X11812500Y-16383929D01*
X11798214Y-16369643D01*
X11783928Y-16341071D01*
X11769643Y-16283929D01*
X11769643Y-16212500D01*
X11783928Y-16155357D01*
X11798214Y-16126786D01*
X11812500Y-16112500D01*
X11841071Y-16098214D01*
X12226786Y-16398214D02*
X12055357Y-16398214D01*
X12141071Y-16398214D02*
X12141071Y-16098214D01*
X12112500Y-16141071D01*
X12083928Y-16169643D01*
X12055357Y-16183929D01*
X12483928Y-16098214D02*
X12426786Y-16098214D01*
X12398214Y-16112500D01*
X12383928Y-16126786D01*
X12355357Y-16169643D01*
X12341071Y-16226786D01*
X12341071Y-16341071D01*
X12355357Y-16369643D01*
X12369643Y-16383929D01*
X12398214Y-16398214D01*
X12455357Y-16398214D01*
X12483928Y-16383929D01*
X12498214Y-16369643D01*
X12512500Y-16341071D01*
X12512500Y-16269643D01*
X12498214Y-16241071D01*
X12483928Y-16226786D01*
X12455357Y-16212500D01*
X12398214Y-16212500D01*
X12369643Y-16226786D01*
X12355357Y-16241071D01*
X12341071Y-16269643D01*
X12626786Y-16098214D02*
X12626786Y-16155357D01*
X12741071Y-16098214D02*
X12741071Y-16155357D01*
X13183928Y-16512500D02*
X13169643Y-16498214D01*
X13141071Y-16455357D01*
X13126786Y-16426786D01*
X13112500Y-16383929D01*
X13098214Y-16312500D01*
X13098214Y-16255357D01*
X13112500Y-16183929D01*
X13126786Y-16141071D01*
X13141071Y-16112500D01*
X13169643Y-16069643D01*
X13183928Y-16055357D01*
X13269643Y-16098214D02*
X13455357Y-16098214D01*
X13355357Y-16212500D01*
X13398214Y-16212500D01*
X13426786Y-16226786D01*
X13441071Y-16241071D01*
X13455357Y-16269643D01*
X13455357Y-16341071D01*
X13441071Y-16369643D01*
X13426786Y-16383929D01*
X13398214Y-16398214D01*
X13312500Y-16398214D01*
X13283928Y-16383929D01*
X13269643Y-16369643D01*
X13569643Y-16126786D02*
X13583928Y-16112500D01*
X13612500Y-16098214D01*
X13683928Y-16098214D01*
X13712500Y-16112500D01*
X13726786Y-16126786D01*
X13741071Y-16155357D01*
X13741071Y-16183929D01*
X13726786Y-16226786D01*
X13555357Y-16398214D01*
X13741071Y-16398214D01*
X14098214Y-16398214D02*
X14098214Y-16098214D01*
X14226786Y-16398214D02*
X14226786Y-16241071D01*
X14212500Y-16212500D01*
X14183928Y-16198214D01*
X14141071Y-16198214D01*
X14112500Y-16212500D01*
X14098214Y-16226786D01*
X14412500Y-16398214D02*
X14383928Y-16383929D01*
X14369643Y-16369643D01*
X14355357Y-16341071D01*
X14355357Y-16255357D01*
X14369643Y-16226786D01*
X14383928Y-16212500D01*
X14412500Y-16198214D01*
X14455357Y-16198214D01*
X14483928Y-16212500D01*
X14498214Y-16226786D01*
X14512500Y-16255357D01*
X14512500Y-16341071D01*
X14498214Y-16369643D01*
X14483928Y-16383929D01*
X14455357Y-16398214D01*
X14412500Y-16398214D01*
X14683928Y-16398214D02*
X14655357Y-16383929D01*
X14641071Y-16355357D01*
X14641071Y-16098214D01*
X14912500Y-16383929D02*
X14883928Y-16398214D01*
X14826786Y-16398214D01*
X14798214Y-16383929D01*
X14783928Y-16355357D01*
X14783928Y-16241071D01*
X14798214Y-16212500D01*
X14826786Y-16198214D01*
X14883928Y-16198214D01*
X14912500Y-16212500D01*
X14926786Y-16241071D01*
X14926786Y-16269643D01*
X14783928Y-16298214D01*
X15041071Y-16383929D02*
X15069643Y-16398214D01*
X15126786Y-16398214D01*
X15155357Y-16383929D01*
X15169643Y-16355357D01*
X15169643Y-16341071D01*
X15155357Y-16312500D01*
X15126786Y-16298214D01*
X15083928Y-16298214D01*
X15055357Y-16283929D01*
X15041071Y-16255357D01*
X15041071Y-16241071D01*
X15055357Y-16212500D01*
X15083928Y-16198214D01*
X15126786Y-16198214D01*
X15155357Y-16212500D01*
X15269643Y-16512500D02*
X15283928Y-16498214D01*
X15312500Y-16455357D01*
X15326786Y-16426786D01*
X15341071Y-16383929D01*
X15355357Y-16312500D01*
X15355357Y-16255357D01*
X15341071Y-16183929D01*
X15326786Y-16141071D01*
X15312500Y-16112500D01*
X15283928Y-16069643D01*
X15269643Y-16055357D01*
X8497500Y-16658500D02*
G75*
G03*
X8497500Y-16658500I-110000J0D01*
G01*
X8769643Y-16522786D02*
X8783928Y-16508500D01*
X8812500Y-16494214D01*
X8883928Y-16494214D01*
X8912500Y-16508500D01*
X8926786Y-16522786D01*
X8941071Y-16551357D01*
X8941071Y-16579929D01*
X8926786Y-16622786D01*
X8755357Y-16794214D01*
X8941071Y-16794214D01*
X9069643Y-16765643D02*
X9083928Y-16779929D01*
X9069643Y-16794214D01*
X9055357Y-16779929D01*
X9069643Y-16765643D01*
X9069643Y-16794214D01*
X9198214Y-16522786D02*
X9212500Y-16508500D01*
X9241071Y-16494214D01*
X9312500Y-16494214D01*
X9341071Y-16508500D01*
X9355357Y-16522786D01*
X9369643Y-16551357D01*
X9369643Y-16579929D01*
X9355357Y-16622786D01*
X9183928Y-16794214D01*
X9369643Y-16794214D01*
X9555357Y-16494214D02*
X9583928Y-16494214D01*
X9612500Y-16508500D01*
X9626786Y-16522786D01*
X9641071Y-16551357D01*
X9655357Y-16608500D01*
X9655357Y-16679929D01*
X9641071Y-16737071D01*
X9626786Y-16765643D01*
X9612500Y-16779929D01*
X9583928Y-16794214D01*
X9555357Y-16794214D01*
X9526786Y-16779929D01*
X9512500Y-16765643D01*
X9498214Y-16737071D01*
X9483928Y-16679929D01*
X9483928Y-16608500D01*
X9498214Y-16551357D01*
X9512500Y-16522786D01*
X9526786Y-16508500D01*
X9555357Y-16494214D01*
X9783928Y-16794214D02*
X9783928Y-16594214D01*
X9783928Y-16622786D02*
X9798214Y-16608500D01*
X9826786Y-16594214D01*
X9869643Y-16594214D01*
X9898214Y-16608500D01*
X9912500Y-16637071D01*
X9912500Y-16794214D01*
X9912500Y-16637071D02*
X9926786Y-16608500D01*
X9955357Y-16594214D01*
X9998214Y-16594214D01*
X10026786Y-16608500D01*
X10041071Y-16637071D01*
X10041071Y-16794214D01*
X10183928Y-16794214D02*
X10183928Y-16594214D01*
X10183928Y-16622786D02*
X10198214Y-16608500D01*
X10226786Y-16594214D01*
X10269643Y-16594214D01*
X10298214Y-16608500D01*
X10312500Y-16637071D01*
X10312500Y-16794214D01*
X10312500Y-16637071D02*
X10326786Y-16608500D01*
X10355357Y-16594214D01*
X10398214Y-16594214D01*
X10426786Y-16608500D01*
X10441071Y-16637071D01*
X10441071Y-16794214D01*
X11026786Y-16479929D02*
X10769643Y-16865643D01*
X11412500Y-16494214D02*
X11441071Y-16494214D01*
X11469643Y-16508500D01*
X11483928Y-16522786D01*
X11498214Y-16551357D01*
X11512500Y-16608500D01*
X11512500Y-16679929D01*
X11498214Y-16737071D01*
X11483928Y-16765643D01*
X11469643Y-16779929D01*
X11441071Y-16794214D01*
X11412500Y-16794214D01*
X11383928Y-16779929D01*
X11369643Y-16765643D01*
X11355357Y-16737071D01*
X11341071Y-16679929D01*
X11341071Y-16608500D01*
X11355357Y-16551357D01*
X11369643Y-16522786D01*
X11383928Y-16508500D01*
X11412500Y-16494214D01*
X11641071Y-16765643D02*
X11655357Y-16779929D01*
X11641071Y-16794214D01*
X11626786Y-16779929D01*
X11641071Y-16765643D01*
X11641071Y-16794214D01*
X11841071Y-16494214D02*
X11869643Y-16494214D01*
X11898214Y-16508500D01*
X11912500Y-16522786D01*
X11926786Y-16551357D01*
X11941071Y-16608500D01*
X11941071Y-16679929D01*
X11926786Y-16737071D01*
X11912500Y-16765643D01*
X11898214Y-16779929D01*
X11869643Y-16794214D01*
X11841071Y-16794214D01*
X11812500Y-16779929D01*
X11798214Y-16765643D01*
X11783928Y-16737071D01*
X11769643Y-16679929D01*
X11769643Y-16608500D01*
X11783928Y-16551357D01*
X11798214Y-16522786D01*
X11812500Y-16508500D01*
X11841071Y-16494214D01*
X12112500Y-16622786D02*
X12083928Y-16608500D01*
X12069643Y-16594214D01*
X12055357Y-16565643D01*
X12055357Y-16551357D01*
X12069643Y-16522786D01*
X12083928Y-16508500D01*
X12112500Y-16494214D01*
X12169643Y-16494214D01*
X12198214Y-16508500D01*
X12212500Y-16522786D01*
X12226786Y-16551357D01*
X12226786Y-16565643D01*
X12212500Y-16594214D01*
X12198214Y-16608500D01*
X12169643Y-16622786D01*
X12112500Y-16622786D01*
X12083928Y-16637071D01*
X12069643Y-16651357D01*
X12055357Y-16679929D01*
X12055357Y-16737071D01*
X12069643Y-16765643D01*
X12083928Y-16779929D01*
X12112500Y-16794214D01*
X12169643Y-16794214D01*
X12198214Y-16779929D01*
X12212500Y-16765643D01*
X12226786Y-16737071D01*
X12226786Y-16679929D01*
X12212500Y-16651357D01*
X12198214Y-16637071D01*
X12169643Y-16622786D01*
X12326786Y-16494214D02*
X12526786Y-16494214D01*
X12398214Y-16794214D01*
X12626786Y-16494214D02*
X12626786Y-16551357D01*
X12741071Y-16494214D02*
X12741071Y-16551357D01*
X13183928Y-16908500D02*
X13169643Y-16894214D01*
X13141071Y-16851357D01*
X13126786Y-16822786D01*
X13112500Y-16779929D01*
X13098214Y-16708500D01*
X13098214Y-16651357D01*
X13112500Y-16579929D01*
X13126786Y-16537071D01*
X13141071Y-16508500D01*
X13169643Y-16465643D01*
X13183928Y-16451357D01*
X13426786Y-16594214D02*
X13426786Y-16794214D01*
X13355357Y-16479929D02*
X13283928Y-16694214D01*
X13469643Y-16694214D01*
X13812500Y-16794214D02*
X13812500Y-16494214D01*
X13941071Y-16794214D02*
X13941071Y-16637071D01*
X13926786Y-16608500D01*
X13898214Y-16594214D01*
X13855357Y-16594214D01*
X13826786Y-16608500D01*
X13812500Y-16622786D01*
X14126786Y-16794214D02*
X14098214Y-16779929D01*
X14083928Y-16765643D01*
X14069643Y-16737071D01*
X14069643Y-16651357D01*
X14083928Y-16622786D01*
X14098214Y-16608500D01*
X14126786Y-16594214D01*
X14169643Y-16594214D01*
X14198214Y-16608500D01*
X14212500Y-16622786D01*
X14226786Y-16651357D01*
X14226786Y-16737071D01*
X14212500Y-16765643D01*
X14198214Y-16779929D01*
X14169643Y-16794214D01*
X14126786Y-16794214D01*
X14398214Y-16794214D02*
X14369643Y-16779929D01*
X14355357Y-16751357D01*
X14355357Y-16494214D01*
X14626786Y-16779929D02*
X14598214Y-16794214D01*
X14541071Y-16794214D01*
X14512500Y-16779929D01*
X14498214Y-16751357D01*
X14498214Y-16637071D01*
X14512500Y-16608500D01*
X14541071Y-16594214D01*
X14598214Y-16594214D01*
X14626786Y-16608500D01*
X14641071Y-16637071D01*
X14641071Y-16665643D01*
X14498214Y-16694214D01*
X14755357Y-16779929D02*
X14783928Y-16794214D01*
X14841071Y-16794214D01*
X14869643Y-16779929D01*
X14883928Y-16751357D01*
X14883928Y-16737071D01*
X14869643Y-16708500D01*
X14841071Y-16694214D01*
X14798214Y-16694214D01*
X14769643Y-16679929D01*
X14755357Y-16651357D01*
X14755357Y-16637071D01*
X14769643Y-16608500D01*
X14798214Y-16594214D01*
X14841071Y-16594214D01*
X14869643Y-16608500D01*
X14983928Y-16908500D02*
X14998214Y-16894214D01*
X15026786Y-16851357D01*
X15041071Y-16822786D01*
X15055357Y-16779929D01*
X15069643Y-16708500D01*
X15069643Y-16651357D01*
X15055357Y-16579929D01*
X15041071Y-16537071D01*
X15026786Y-16508500D01*
X14998214Y-16465643D01*
X14983928Y-16451357D01*
M02*
