%FSLAX45Y45*%
G04 Gerber Fmt 4.5, Leading zero omitted, Abs format (unit mm)*
G04 Created by KiCad (PCBNEW 5.1.6-1.fc32) date 2020-07-09 20:52:14*
%MOMM*%
%LPD*%
G01*
G04 APERTURE LIST*
%TA.AperFunction,Profile*%
%ADD10C,0.050000*%
%TD*%
%ADD11C,0.200000*%
%ADD12C,0.300000*%
G04 APERTURE END LIST*
D10*
X8500000Y-14900000D02*
X8500000Y-8900000D01*
X14900000Y-15300000D02*
X8900000Y-15300000D01*
X15300000Y-8900000D02*
X15300000Y-14900000D01*
X8900000Y-8500000D02*
X14900000Y-8500000D01*
X8500000Y-8900000D02*
G75*
G02*
X8900000Y-8500000I400000J0D01*
G01*
X8900000Y-15300000D02*
G75*
G02*
X8500000Y-14900000I0J400000D01*
G01*
X15300000Y-14900000D02*
G75*
G02*
X14900000Y-15300000I-400000J0D01*
G01*
X14900000Y-8500000D02*
G75*
G02*
X15300000Y-8900000I0J-400000D01*
G01*
D11*
D12*
X8783928Y-15768214D02*
X8783928Y-15468214D01*
X8855357Y-15468214D01*
X8898214Y-15482500D01*
X8926786Y-15511071D01*
X8941071Y-15539643D01*
X8955357Y-15596786D01*
X8955357Y-15639643D01*
X8941071Y-15696786D01*
X8926786Y-15725357D01*
X8898214Y-15753929D01*
X8855357Y-15768214D01*
X8783928Y-15768214D01*
X9083928Y-15768214D02*
X9083928Y-15568214D01*
X9083928Y-15625357D02*
X9098214Y-15596786D01*
X9112500Y-15582500D01*
X9141071Y-15568214D01*
X9169643Y-15568214D01*
X9269643Y-15768214D02*
X9269643Y-15568214D01*
X9269643Y-15468214D02*
X9255357Y-15482500D01*
X9269643Y-15496786D01*
X9283928Y-15482500D01*
X9269643Y-15468214D01*
X9269643Y-15496786D01*
X9455357Y-15768214D02*
X9426786Y-15753929D01*
X9412500Y-15725357D01*
X9412500Y-15468214D01*
X9612500Y-15768214D02*
X9583928Y-15753929D01*
X9569643Y-15725357D01*
X9569643Y-15468214D01*
X9955357Y-15768214D02*
X9955357Y-15468214D01*
X10055357Y-15682500D01*
X10155357Y-15468214D01*
X10155357Y-15768214D01*
X10426786Y-15768214D02*
X10426786Y-15611071D01*
X10412500Y-15582500D01*
X10383928Y-15568214D01*
X10326786Y-15568214D01*
X10298214Y-15582500D01*
X10426786Y-15753929D02*
X10398214Y-15768214D01*
X10326786Y-15768214D01*
X10298214Y-15753929D01*
X10283928Y-15725357D01*
X10283928Y-15696786D01*
X10298214Y-15668214D01*
X10326786Y-15653929D01*
X10398214Y-15653929D01*
X10426786Y-15639643D01*
X10569643Y-15568214D02*
X10569643Y-15868214D01*
X10569643Y-15582500D02*
X10598214Y-15568214D01*
X10655357Y-15568214D01*
X10683928Y-15582500D01*
X10698214Y-15596786D01*
X10712500Y-15625357D01*
X10712500Y-15711071D01*
X10698214Y-15739643D01*
X10683928Y-15753929D01*
X10655357Y-15768214D01*
X10598214Y-15768214D01*
X10569643Y-15753929D01*
X10841071Y-15739643D02*
X10855357Y-15753929D01*
X10841071Y-15768214D01*
X10826786Y-15753929D01*
X10841071Y-15739643D01*
X10841071Y-15768214D01*
X10841071Y-15582500D02*
X10855357Y-15596786D01*
X10841071Y-15611071D01*
X10826786Y-15596786D01*
X10841071Y-15582500D01*
X10841071Y-15611071D01*
M02*
