M48
; DRILL file {KiCad 5.1.6-1.fc32} date Thu Jul  9 20:52:15 2020
; FORMAT={-:-/ absolute / metric / decimal}
; #@! TF.CreationDate,2020-07-09T20:52:15-05:00
; #@! TF.GenerationSoftware,Kicad,Pcbnew,5.1.6-1.fc32
; #@! TF.FileFunction,Plated,1,2,PTH
FMAT,2
METRIC
T1C0.400
T2C2.200
%
G90
G05
T1
X91.167Y-91.167
X91.65Y-90.0
X146.35Y-148.0
X146.833Y-149.167
X146.35Y-90.0
X146.833Y-88.833
X146.833Y-91.167
X148.0Y-88.35
X148.0Y-91.65
X149.167Y-88.833
X149.167Y-91.167
X149.65Y-90.0
X88.35Y-148.0
X88.833Y-146.833
X88.833Y-149.167
X90.0Y-146.35
X90.0Y-149.65
X91.167Y-146.833
X91.167Y-149.167
X91.65Y-148.0
X88.35Y-90.0
X88.833Y-88.833
X88.833Y-91.167
X90.0Y-88.35
X90.0Y-91.65
X91.167Y-88.833
X146.833Y-146.833
X148.0Y-146.35
X148.0Y-149.65
X149.167Y-146.833
X149.167Y-149.167
X149.65Y-148.0
T2
X148.0Y-90.0
X90.0Y-148.0
X90.0Y-90.0
X148.0Y-148.0
T0
M30
