%TF.GenerationSoftware,KiCad,Pcbnew,5.1.6-1.fc32*%
%TF.CreationDate,2020-07-09T20:52:17-05:00*%
%TF.ProjectId,case_plate,63617365-5f70-46c6-9174-652e6b696361,rev?*%
%TF.SameCoordinates,Original*%
%TF.FileFunction,Legend,Bot*%
%TF.FilePolarity,Positive*%
%FSLAX46Y46*%
G04 Gerber Fmt 4.6, Leading zero omitted, Abs format (unit mm)*
G04 Created by KiCad (PCBNEW 5.1.6-1.fc32) date 2020-07-09 20:52:17*
%MOMM*%
%LPD*%
G01*
G04 APERTURE LIST*
%ADD10C,0.150000*%
%ADD11C,0.800000*%
%ADD12C,4.500000*%
G04 APERTURE END LIST*
D10*
X103119047Y-150252380D02*
X103119047Y-150966666D01*
X103166666Y-151109523D01*
X103261904Y-151204761D01*
X103404761Y-151252380D01*
X103500000Y-151252380D01*
X102166666Y-151252380D02*
X102642857Y-151252380D01*
X102642857Y-150252380D01*
X101261904Y-151157142D02*
X101309523Y-151204761D01*
X101452380Y-151252380D01*
X101547619Y-151252380D01*
X101690476Y-151204761D01*
X101785714Y-151109523D01*
X101833333Y-151014285D01*
X101880952Y-150823809D01*
X101880952Y-150680952D01*
X101833333Y-150490476D01*
X101785714Y-150395238D01*
X101690476Y-150300000D01*
X101547619Y-150252380D01*
X101452380Y-150252380D01*
X101309523Y-150300000D01*
X101261904Y-150347619D01*
X100547619Y-150252380D02*
X100547619Y-150966666D01*
X100595238Y-151109523D01*
X100690476Y-151204761D01*
X100833333Y-151252380D01*
X100928571Y-151252380D01*
X99595238Y-151252380D02*
X100071428Y-151252380D01*
X100071428Y-150252380D01*
X98690476Y-151157142D02*
X98738095Y-151204761D01*
X98880952Y-151252380D01*
X98976190Y-151252380D01*
X99119047Y-151204761D01*
X99214285Y-151109523D01*
X99261904Y-151014285D01*
X99309523Y-150823809D01*
X99309523Y-150680952D01*
X99261904Y-150490476D01*
X99214285Y-150395238D01*
X99119047Y-150300000D01*
X98976190Y-150252380D01*
X98880952Y-150252380D01*
X98738095Y-150300000D01*
X98690476Y-150347619D01*
X97976190Y-150252380D02*
X97976190Y-150966666D01*
X98023809Y-151109523D01*
X98119047Y-151204761D01*
X98261904Y-151252380D01*
X98357142Y-151252380D01*
X97023809Y-151252380D02*
X97500000Y-151252380D01*
X97500000Y-150252380D01*
X96119047Y-151157142D02*
X96166666Y-151204761D01*
X96309523Y-151252380D01*
X96404761Y-151252380D01*
X96547619Y-151204761D01*
X96642857Y-151109523D01*
X96690476Y-151014285D01*
X96738095Y-150823809D01*
X96738095Y-150680952D01*
X96690476Y-150490476D01*
X96642857Y-150395238D01*
X96547619Y-150300000D01*
X96404761Y-150252380D01*
X96309523Y-150252380D01*
X96166666Y-150300000D01*
X96119047Y-150347619D01*
X95404761Y-150252380D02*
X95404761Y-150966666D01*
X95452380Y-151109523D01*
X95547619Y-151204761D01*
X95690476Y-151252380D01*
X95785714Y-151252380D01*
X94452380Y-151252380D02*
X94928571Y-151252380D01*
X94928571Y-150252380D01*
X93547619Y-151157142D02*
X93595238Y-151204761D01*
X93738095Y-151252380D01*
X93833333Y-151252380D01*
X93976190Y-151204761D01*
X94071428Y-151109523D01*
X94119047Y-151014285D01*
X94166666Y-150823809D01*
X94166666Y-150680952D01*
X94119047Y-150490476D01*
X94071428Y-150395238D01*
X93976190Y-150300000D01*
X93833333Y-150252380D01*
X93738095Y-150252380D01*
X93595238Y-150300000D01*
X93547619Y-150347619D01*
%LPC*%
D11*
%TO.C,REF\u002A\u002A*%
X91166726Y-146833274D03*
X90000000Y-146350000D03*
X88833274Y-146833274D03*
X88350000Y-148000000D03*
X88833274Y-149166726D03*
X90000000Y-149650000D03*
X91166726Y-149166726D03*
X91650000Y-148000000D03*
D12*
X90000000Y-148000000D03*
%TD*%
D11*
%TO.C,REF\u002A\u002A*%
X149166726Y-146833274D03*
X148000000Y-146350000D03*
X146833274Y-146833274D03*
X146350000Y-148000000D03*
X146833274Y-149166726D03*
X148000000Y-149650000D03*
X149166726Y-149166726D03*
X149650000Y-148000000D03*
D12*
X148000000Y-148000000D03*
%TD*%
D11*
%TO.C,REF\u002A\u002A*%
X149166726Y-88833274D03*
X148000000Y-88350000D03*
X146833274Y-88833274D03*
X146350000Y-90000000D03*
X146833274Y-91166726D03*
X148000000Y-91650000D03*
X149166726Y-91166726D03*
X149650000Y-90000000D03*
D12*
X148000000Y-90000000D03*
%TD*%
D11*
%TO.C,REF\u002A\u002A*%
X91166726Y-88833274D03*
X90000000Y-88350000D03*
X88833274Y-88833274D03*
X88350000Y-90000000D03*
X88833274Y-91166726D03*
X90000000Y-91650000D03*
X91166726Y-91166726D03*
X91650000Y-90000000D03*
D12*
X90000000Y-90000000D03*
%TD*%
M02*
