%TF.GenerationSoftware,KiCad,Pcbnew,5.1.6-1.fc32*%
%TF.CreationDate,2020-07-09T20:52:17-05:00*%
%TF.ProjectId,case_plate,63617365-5f70-46c6-9174-652e6b696361,rev?*%
%TF.SameCoordinates,Original*%
%TF.FileFunction,Copper,L1,Top*%
%TF.FilePolarity,Positive*%
%FSLAX46Y46*%
G04 Gerber Fmt 4.6, Leading zero omitted, Abs format (unit mm)*
G04 Created by KiCad (PCBNEW 5.1.6-1.fc32) date 2020-07-09 20:52:17*
%MOMM*%
%LPD*%
G01*
G04 APERTURE LIST*
%TA.AperFunction,SMDPad,CuDef*%
%ADD10C,0.100000*%
%TD*%
%TA.AperFunction,ComponentPad*%
%ADD11C,0.700000*%
%TD*%
%TA.AperFunction,ComponentPad*%
%ADD12C,4.400000*%
%TD*%
G04 APERTURE END LIST*
%TA.AperFunction,SMDPad,CuDef*%
D10*
%TO.P,G\u002A\u002A\u002A,1*%
%TO.N,N/C*%
G36*
X110594214Y-93126950D02*
G01*
X110595158Y-93127216D01*
X110596031Y-93127662D01*
X110596800Y-93128269D01*
X110597437Y-93129014D01*
X110597915Y-93129869D01*
X110598218Y-93130802D01*
X110598334Y-93131897D01*
X110574500Y-97988794D01*
X110550666Y-102845692D01*
X110550565Y-102846667D01*
X110550153Y-102847873D01*
X110319692Y-103316695D01*
X110319456Y-103317121D01*
X109914788Y-103970767D01*
X109914186Y-103971553D01*
X109403590Y-104516702D01*
X109402939Y-104517285D01*
X109025254Y-104800277D01*
X109024929Y-104800502D01*
X108846563Y-104913320D01*
X108846411Y-104913412D01*
X108681758Y-105009543D01*
X108681429Y-105009719D01*
X108515857Y-105090501D01*
X108515394Y-105090698D01*
X108334271Y-105157464D01*
X108333782Y-105157617D01*
X108122475Y-105211703D01*
X108122058Y-105211791D01*
X107865936Y-105254532D01*
X107865629Y-105254573D01*
X107550058Y-105287305D01*
X107549850Y-105287322D01*
X107160198Y-105311380D01*
X107160065Y-105311387D01*
X106681701Y-105328107D01*
X106681618Y-105328109D01*
X106099908Y-105338825D01*
X106099859Y-105338826D01*
X105400172Y-105344874D01*
X105400145Y-105344874D01*
X104567847Y-105347589D01*
X104567835Y-105347589D01*
X103588296Y-105348306D01*
X103588292Y-105348306D01*
X103027605Y-105348334D01*
X98376612Y-105348334D01*
X98375637Y-105348238D01*
X98374699Y-105347953D01*
X98373834Y-105347491D01*
X98373077Y-105346870D01*
X98372455Y-105346112D01*
X98371993Y-105345248D01*
X98371708Y-105344310D01*
X98371613Y-105343237D01*
X98416330Y-103036070D01*
X98416330Y-103036056D01*
X98433594Y-102257933D01*
X98433596Y-102257878D01*
X98454690Y-101620991D01*
X98454695Y-101620883D01*
X98483467Y-101097138D01*
X98483480Y-101096955D01*
X98523781Y-100658255D01*
X98523812Y-100657990D01*
X98579489Y-100276238D01*
X98579546Y-100275922D01*
X98654448Y-99923022D01*
X98654522Y-99922720D01*
X98752500Y-99570577D01*
X98752568Y-99570354D01*
X98877468Y-99190870D01*
X98877506Y-99190759D01*
X98984361Y-98890094D01*
X98984504Y-98889734D01*
X99456635Y-97829212D01*
X99456965Y-97828593D01*
X100071536Y-96846806D01*
X100071935Y-96846256D01*
X100816198Y-95954187D01*
X100816654Y-95953708D01*
X101677860Y-95162338D01*
X101678365Y-95161932D01*
X102643767Y-94482245D01*
X102644314Y-94481910D01*
X103701161Y-93924890D01*
X103701745Y-93924628D01*
X104837291Y-93501256D01*
X104837747Y-93501110D01*
X105419948Y-93345560D01*
X105420378Y-93345466D01*
X105692057Y-93297976D01*
X105692401Y-93297928D01*
X106074351Y-93258185D01*
X106074544Y-93258168D01*
X106580510Y-93225336D01*
X106580626Y-93225330D01*
X107224355Y-93198574D01*
X107224428Y-93198572D01*
X108019665Y-93177059D01*
X108019697Y-93177058D01*
X108283397Y-93171627D01*
X108283403Y-93171627D01*
X110593237Y-93126873D01*
X110594214Y-93126950D01*
G37*
%TD.AperFunction*%
%TA.AperFunction,SMDPad,CuDef*%
%TO.P,G\u002A\u002A\u002A,2*%
G36*
X125151641Y-93146430D02*
G01*
X125152579Y-93146715D01*
X125153444Y-93147177D01*
X125154202Y-93147798D01*
X125154823Y-93148556D01*
X125155285Y-93149421D01*
X125155570Y-93150359D01*
X125155666Y-93151336D01*
X125154196Y-97575169D01*
X125154196Y-97575173D01*
X125153022Y-98642360D01*
X125153022Y-98642373D01*
X125149581Y-99554938D01*
X125149581Y-99554963D01*
X125142853Y-100327612D01*
X125142852Y-100327653D01*
X125131815Y-100975093D01*
X125131814Y-100975160D01*
X125115446Y-101512097D01*
X125115441Y-101512202D01*
X125092720Y-101953343D01*
X125092710Y-101953502D01*
X125062614Y-102313553D01*
X125062589Y-102313787D01*
X125024098Y-102607456D01*
X125024045Y-102607777D01*
X124976135Y-102849769D01*
X124976039Y-102850167D01*
X124917691Y-103055188D01*
X124917553Y-103055603D01*
X124847743Y-103238362D01*
X124847598Y-103238704D01*
X124765305Y-103413905D01*
X124765233Y-103414050D01*
X124745478Y-103452795D01*
X124745183Y-103453299D01*
X124348896Y-104047327D01*
X124348248Y-104048112D01*
X123825103Y-104564167D01*
X123824356Y-104564774D01*
X123210065Y-104972269D01*
X123209298Y-104972686D01*
X122724976Y-105183637D01*
X122724492Y-105183819D01*
X122592014Y-105225872D01*
X122591681Y-105225965D01*
X122450985Y-105260133D01*
X122450604Y-105260210D01*
X122283502Y-105287260D01*
X122283190Y-105287300D01*
X122071495Y-105308001D01*
X122071283Y-105308017D01*
X121796806Y-105323137D01*
X121796676Y-105323143D01*
X121441231Y-105333448D01*
X121441155Y-105333450D01*
X120986553Y-105339710D01*
X120986510Y-105339710D01*
X120414564Y-105342691D01*
X120414541Y-105342691D01*
X119707064Y-105343162D01*
X119707054Y-105343162D01*
X118977905Y-105342147D01*
X118977899Y-105342147D01*
X118136111Y-105339945D01*
X118136098Y-105339945D01*
X117445699Y-105336307D01*
X117445672Y-105336307D01*
X116888717Y-105330446D01*
X116888670Y-105330445D01*
X116447217Y-105321571D01*
X116447133Y-105321569D01*
X116103236Y-105308892D01*
X116103094Y-105308884D01*
X115838810Y-105291617D01*
X115838581Y-105291597D01*
X115635968Y-105268949D01*
X115635631Y-105268900D01*
X115476742Y-105240082D01*
X115476336Y-105239991D01*
X115343230Y-105204215D01*
X115342938Y-105204126D01*
X115267370Y-105178773D01*
X115266783Y-105178534D01*
X114628265Y-104869759D01*
X114627434Y-104869252D01*
X114044965Y-104430532D01*
X114044277Y-104429905D01*
X113557748Y-103895870D01*
X113557211Y-103895164D01*
X113279408Y-103453185D01*
X113279143Y-103452707D01*
X113193985Y-103277199D01*
X113193845Y-103276884D01*
X113121394Y-103097034D01*
X113121250Y-103096627D01*
X113060483Y-102897728D01*
X113060377Y-102897320D01*
X113010272Y-102664667D01*
X113010211Y-102664326D01*
X112969748Y-102383212D01*
X112969718Y-102382961D01*
X112937874Y-102038678D01*
X112937861Y-102038504D01*
X112913615Y-101616347D01*
X112913610Y-101616232D01*
X112895940Y-101101495D01*
X112895938Y-101101420D01*
X112883823Y-100479394D01*
X112883822Y-100479348D01*
X112876239Y-99735329D01*
X112876239Y-99735301D01*
X112872167Y-98854581D01*
X112872167Y-98854566D01*
X112870585Y-97822439D01*
X112870585Y-97822433D01*
X112870470Y-97575169D01*
X112869000Y-93151336D01*
X112869096Y-93150361D01*
X112869380Y-93149423D01*
X112869841Y-93148558D01*
X112870463Y-93147800D01*
X112871220Y-93147178D01*
X112872084Y-93146715D01*
X112873022Y-93146431D01*
X112874000Y-93146334D01*
X125150666Y-93146334D01*
X125151641Y-93146430D01*
G37*
%TD.AperFunction*%
%TA.AperFunction,SMDPad,CuDef*%
%TO.P,G\u002A\u002A\u002A,3*%
G36*
X129317856Y-93148948D02*
G01*
X129317897Y-93148948D01*
X130253150Y-93157859D01*
X130253270Y-93157862D01*
X131047722Y-93184611D01*
X131047911Y-93184621D01*
X131729546Y-93233448D01*
X131729814Y-93233474D01*
X132326616Y-93308617D01*
X132326952Y-93308671D01*
X132866905Y-93414373D01*
X132867269Y-93414459D01*
X133378358Y-93554958D01*
X133378693Y-93555062D01*
X133888903Y-93734599D01*
X133889136Y-93734688D01*
X134304627Y-93904612D01*
X134305025Y-93904796D01*
X135346675Y-94441862D01*
X135347260Y-94442216D01*
X136308662Y-95118183D01*
X136309176Y-95118598D01*
X137174387Y-95916649D01*
X137174837Y-95917122D01*
X137927918Y-96820444D01*
X137928308Y-96820980D01*
X138553316Y-97812756D01*
X138553642Y-97813361D01*
X139034636Y-98876776D01*
X139034774Y-98877114D01*
X139044919Y-98904753D01*
X139044938Y-98904807D01*
X139189886Y-99314143D01*
X139189940Y-99314302D01*
X139305578Y-99679309D01*
X139305652Y-99679567D01*
X139395782Y-100028130D01*
X139395853Y-100028448D01*
X139464278Y-100388451D01*
X139464326Y-100388757D01*
X139514848Y-100788088D01*
X139514873Y-100788327D01*
X139551294Y-101254869D01*
X139551304Y-101255026D01*
X139577426Y-101816665D01*
X139577429Y-101816754D01*
X139597056Y-102501376D01*
X139597057Y-102501414D01*
X139608336Y-103036062D01*
X139608336Y-103036070D01*
X139653053Y-105343237D01*
X139652976Y-105344214D01*
X139652710Y-105345158D01*
X139652264Y-105346031D01*
X139651657Y-105346800D01*
X139650912Y-105347437D01*
X139650057Y-105347915D01*
X139649124Y-105348218D01*
X139648051Y-105348334D01*
X134960524Y-105345569D01*
X134960522Y-105345569D01*
X133938801Y-105344568D01*
X133938795Y-105344568D01*
X133072143Y-105342588D01*
X133072131Y-105342588D01*
X132346285Y-105339212D01*
X132346265Y-105339212D01*
X131746963Y-105334023D01*
X131746930Y-105334022D01*
X131259908Y-105326602D01*
X131259855Y-105326601D01*
X130870851Y-105316534D01*
X130870765Y-105316531D01*
X130565514Y-105303399D01*
X130565378Y-105303392D01*
X130329619Y-105286778D01*
X130329406Y-105286758D01*
X130148874Y-105266245D01*
X130148562Y-105266200D01*
X130008996Y-105241370D01*
X130008605Y-105241284D01*
X129895741Y-105211720D01*
X129895454Y-105211635D01*
X129847007Y-105195790D01*
X129846486Y-105195587D01*
X129115481Y-104862081D01*
X129114577Y-104861547D01*
X128500996Y-104406305D01*
X128500186Y-104405552D01*
X128001533Y-103826387D01*
X128001003Y-103825644D01*
X127708615Y-103324350D01*
X127708446Y-103324036D01*
X127474512Y-102847872D01*
X127474168Y-102846954D01*
X127474000Y-102845692D01*
X127450182Y-97998525D01*
X127426364Y-93151359D01*
X127426455Y-93150383D01*
X127426735Y-93149443D01*
X127427193Y-93148577D01*
X127427811Y-93147816D01*
X127428566Y-93147190D01*
X127429428Y-93146724D01*
X127430364Y-93146435D01*
X127431371Y-93146334D01*
X129317856Y-93148948D01*
G37*
%TD.AperFunction*%
%TA.AperFunction,SMDPad,CuDef*%
%TO.P,G\u002A\u002A\u002A,4*%
G36*
X139629641Y-107709096D02*
G01*
X139630579Y-107709380D01*
X139631443Y-107709842D01*
X139632201Y-107710464D01*
X139632823Y-107711222D01*
X139633285Y-107712086D01*
X139633570Y-107713024D01*
X139633666Y-107714000D01*
X139633666Y-119906000D01*
X139633570Y-119906975D01*
X139633285Y-119907913D01*
X139632823Y-119908778D01*
X139632202Y-119909536D01*
X139631444Y-119910157D01*
X139630579Y-119910619D01*
X139629641Y-119910904D01*
X139628664Y-119911000D01*
X134993164Y-119908814D01*
X133989501Y-119908213D01*
X133989496Y-119908213D01*
X133140328Y-119907064D01*
X133140319Y-119907064D01*
X132430811Y-119904816D01*
X132430794Y-119904816D01*
X131846109Y-119900917D01*
X131846078Y-119900917D01*
X131371377Y-119894814D01*
X131371324Y-119894813D01*
X130991771Y-119885956D01*
X130991685Y-119885953D01*
X130692444Y-119873790D01*
X130692305Y-119873782D01*
X130458538Y-119857759D01*
X130458326Y-119857740D01*
X130275195Y-119837307D01*
X130274900Y-119837265D01*
X130127570Y-119811869D01*
X130127231Y-119811799D01*
X130000863Y-119780889D01*
X130000581Y-119780811D01*
X129880340Y-119743834D01*
X129880215Y-119743794D01*
X129795439Y-119715264D01*
X129794958Y-119715074D01*
X129091965Y-119394269D01*
X129091027Y-119393709D01*
X128500983Y-118947837D01*
X128500162Y-118947056D01*
X128020113Y-118373289D01*
X128019529Y-118372421D01*
X127646519Y-117667930D01*
X127646317Y-117667500D01*
X127639196Y-117650276D01*
X127639178Y-117650231D01*
X127588173Y-117523381D01*
X127588088Y-117523154D01*
X127546428Y-117403044D01*
X127546305Y-117402634D01*
X127513042Y-117271403D01*
X127512953Y-117270970D01*
X127487144Y-117110754D01*
X127487102Y-117110423D01*
X127467799Y-116903358D01*
X127467783Y-116903146D01*
X127454044Y-116631371D01*
X127454040Y-116631248D01*
X127444917Y-116276899D01*
X127444915Y-116276830D01*
X127439463Y-115822044D01*
X127439463Y-115822008D01*
X127436738Y-115248922D01*
X127436738Y-115248905D01*
X127435794Y-114539656D01*
X127435794Y-114539650D01*
X127435685Y-113810001D01*
X127435685Y-113809999D01*
X127435856Y-112969855D01*
X127435856Y-112969848D01*
X127436997Y-112281175D01*
X127436997Y-112281155D01*
X127440054Y-111726089D01*
X127440054Y-111726050D01*
X127445973Y-111286728D01*
X127445975Y-111286653D01*
X127455700Y-110945212D01*
X127455706Y-110945078D01*
X127470184Y-110683656D01*
X127470201Y-110683428D01*
X127490376Y-110484161D01*
X127490424Y-110483812D01*
X127517242Y-110328838D01*
X127517339Y-110328398D01*
X127551745Y-110199853D01*
X127551867Y-110199461D01*
X127594807Y-110079482D01*
X127594880Y-110079292D01*
X127639182Y-109969759D01*
X127639324Y-109969439D01*
X127927945Y-109378596D01*
X127928391Y-109377854D01*
X128271646Y-108904868D01*
X128272288Y-108904144D01*
X128708613Y-108498318D01*
X128708992Y-108497999D01*
X128817559Y-108415444D01*
X128817637Y-108415385D01*
X129015100Y-108271276D01*
X129015240Y-108271178D01*
X129196432Y-108148167D01*
X129196742Y-108147973D01*
X129376347Y-108044390D01*
X129376811Y-108044154D01*
X129569511Y-107958329D01*
X129570037Y-107958129D01*
X129790516Y-107888393D01*
X129790995Y-107888267D01*
X130053936Y-107832950D01*
X130054306Y-107832887D01*
X130374392Y-107790318D01*
X130374651Y-107790290D01*
X130766565Y-107758800D01*
X130766734Y-107758789D01*
X131245159Y-107736708D01*
X131245266Y-107736705D01*
X131824885Y-107722363D01*
X131824950Y-107722361D01*
X132520447Y-107714089D01*
X132520483Y-107714089D01*
X133346540Y-107710215D01*
X133346557Y-107710215D01*
X134317857Y-107709071D01*
X134317862Y-107709071D01*
X135023250Y-107709000D01*
X139628665Y-107709000D01*
X139629641Y-107709096D01*
G37*
%TD.AperFunction*%
%TA.AperFunction,SMDPad,CuDef*%
%TO.P,G\u002A\u002A\u002A,6*%
G36*
X104005940Y-107709258D02*
G01*
X104005945Y-107709258D01*
X104856062Y-107710360D01*
X104856073Y-107710360D01*
X105566705Y-107712799D01*
X105566724Y-107712799D01*
X106152797Y-107717067D01*
X106152830Y-107717067D01*
X106629267Y-107723657D01*
X106629321Y-107723659D01*
X107011048Y-107733064D01*
X107011135Y-107733066D01*
X107313075Y-107745779D01*
X107313212Y-107745787D01*
X107550291Y-107762301D01*
X107550496Y-107762320D01*
X107737637Y-107783126D01*
X107737914Y-107783164D01*
X107890043Y-107808756D01*
X107890352Y-107808818D01*
X108022391Y-107839689D01*
X108022640Y-107839754D01*
X108149516Y-107876395D01*
X108149601Y-107876421D01*
X108159468Y-107879460D01*
X108159983Y-107879650D01*
X108851800Y-108179305D01*
X108852751Y-108179847D01*
X109455772Y-108617766D01*
X109456571Y-108618490D01*
X109956486Y-109180866D01*
X109957096Y-109181717D01*
X110339591Y-109854740D01*
X110339875Y-109855326D01*
X110425365Y-110065410D01*
X110425447Y-110065626D01*
X110469052Y-110188765D01*
X110469149Y-110189070D01*
X110504630Y-110314240D01*
X110504729Y-110314654D01*
X110532771Y-110459525D01*
X110532828Y-110459895D01*
X110554116Y-110642136D01*
X110554140Y-110642396D01*
X110569358Y-110879678D01*
X110569365Y-110879839D01*
X110579198Y-111189829D01*
X110579201Y-111189924D01*
X110584335Y-111590294D01*
X110584335Y-111590347D01*
X110585454Y-112098764D01*
X110585454Y-112098792D01*
X110583243Y-112732928D01*
X110583243Y-112732942D01*
X110578387Y-113510464D01*
X110578387Y-113510469D01*
X110575400Y-113928578D01*
X110575400Y-113928580D01*
X110568990Y-114776637D01*
X110568990Y-114776645D01*
X110562641Y-115472785D01*
X110562641Y-115472804D01*
X110555354Y-116034441D01*
X110555353Y-116034480D01*
X110546128Y-116479027D01*
X110546126Y-116479099D01*
X110533963Y-116823972D01*
X110533957Y-116824102D01*
X110517857Y-117086712D01*
X110517838Y-117086935D01*
X110496802Y-117284696D01*
X110496751Y-117285050D01*
X110469778Y-117435377D01*
X110469670Y-117435850D01*
X110435762Y-117556156D01*
X110435610Y-117556611D01*
X110393766Y-117664309D01*
X110393667Y-117664544D01*
X110355773Y-117749046D01*
X110355540Y-117749503D01*
X109951132Y-118449001D01*
X109950531Y-118449830D01*
X109441700Y-119019023D01*
X109440878Y-119019760D01*
X108832564Y-119454170D01*
X108831615Y-119454702D01*
X108159953Y-119740363D01*
X108159397Y-119740562D01*
X108032303Y-119777663D01*
X108032063Y-119777726D01*
X107900941Y-119809019D01*
X107900633Y-119809083D01*
X107750558Y-119835059D01*
X107750276Y-119835099D01*
X107566324Y-119856253D01*
X107566113Y-119856273D01*
X107333360Y-119873095D01*
X107333219Y-119873103D01*
X107036739Y-119886088D01*
X107036648Y-119886091D01*
X106661518Y-119895731D01*
X106661462Y-119895732D01*
X106192757Y-119902519D01*
X106192723Y-119902520D01*
X105615518Y-119906948D01*
X105615498Y-119906948D01*
X104914869Y-119909508D01*
X104914858Y-119909508D01*
X104075882Y-119910694D01*
X104075877Y-119910694D01*
X103083627Y-119910999D01*
X103083625Y-119910999D01*
X103001414Y-119911000D01*
X98396000Y-119911000D01*
X98395025Y-119910904D01*
X98394087Y-119910619D01*
X98393222Y-119910157D01*
X98392465Y-119909536D01*
X98391843Y-119908778D01*
X98391381Y-119907913D01*
X98391096Y-119906976D01*
X98391000Y-119906000D01*
X98391000Y-107714000D01*
X98391096Y-107713025D01*
X98391381Y-107712087D01*
X98391843Y-107711222D01*
X98392464Y-107710464D01*
X98393222Y-107709843D01*
X98394087Y-107709381D01*
X98395025Y-107709096D01*
X98396000Y-107709000D01*
X103001415Y-107709000D01*
X104005940Y-107709258D01*
G37*
%TD.AperFunction*%
%TA.AperFunction,SMDPad,CuDef*%
%TO.P,G\u002A\u002A\u002A,7*%
G36*
X104096982Y-122272122D02*
G01*
X104096989Y-122272122D01*
X104968543Y-122273747D01*
X104968556Y-122273747D01*
X105699038Y-122276930D01*
X105699058Y-122276930D01*
X106302595Y-122282058D01*
X106302629Y-122282059D01*
X106793353Y-122289520D01*
X106793407Y-122289521D01*
X107185445Y-122299703D01*
X107185531Y-122299706D01*
X107493013Y-122312997D01*
X107493150Y-122313004D01*
X107730206Y-122329792D01*
X107730421Y-122329812D01*
X107911179Y-122350484D01*
X107911497Y-122350531D01*
X108050087Y-122375476D01*
X108050494Y-122375567D01*
X108161046Y-122405172D01*
X108161305Y-122405249D01*
X108182636Y-122412214D01*
X108183173Y-122412424D01*
X108888170Y-122736633D01*
X108889085Y-122737179D01*
X109504345Y-123199697D01*
X109505116Y-123200415D01*
X110014718Y-123787152D01*
X110015248Y-123787888D01*
X110319510Y-124302968D01*
X110319692Y-124303305D01*
X110550153Y-124772128D01*
X110550497Y-124773046D01*
X110550666Y-124774309D01*
X110574484Y-129621475D01*
X110598301Y-134468642D01*
X110598210Y-134469618D01*
X110597930Y-134470558D01*
X110597472Y-134471424D01*
X110596854Y-134472185D01*
X110596099Y-134472811D01*
X110595237Y-134473277D01*
X110594301Y-134473566D01*
X110593274Y-134473667D01*
X108622123Y-134462931D01*
X108622099Y-134462931D01*
X108025251Y-134456820D01*
X108025205Y-134456819D01*
X107452828Y-134445696D01*
X107452779Y-134445695D01*
X106937522Y-134430595D01*
X106937456Y-134430593D01*
X106511968Y-134412554D01*
X106511852Y-134412547D01*
X106208782Y-134392606D01*
X106208585Y-134392589D01*
X106122914Y-134383543D01*
X106122454Y-134383473D01*
X104959783Y-134149887D01*
X104959131Y-134149709D01*
X103847424Y-133764428D01*
X103846817Y-133764172D01*
X102800489Y-133238633D01*
X102799930Y-133238305D01*
X101833393Y-132583946D01*
X101832883Y-132583551D01*
X100960550Y-131811810D01*
X100960091Y-131811347D01*
X100196375Y-130933660D01*
X100195972Y-130933129D01*
X99555287Y-129960933D01*
X99554949Y-129960334D01*
X99051708Y-128905068D01*
X99051546Y-128904688D01*
X98979766Y-128715296D01*
X98979728Y-128715193D01*
X98834780Y-128305857D01*
X98834726Y-128305698D01*
X98719088Y-127940691D01*
X98719014Y-127940433D01*
X98628884Y-127591871D01*
X98628813Y-127591553D01*
X98560388Y-127231549D01*
X98560340Y-127231243D01*
X98509818Y-126831913D01*
X98509793Y-126831674D01*
X98473372Y-126365132D01*
X98473362Y-126364975D01*
X98447239Y-125803335D01*
X98447236Y-125803246D01*
X98427610Y-125118624D01*
X98427609Y-125118586D01*
X98416330Y-124583939D01*
X98416330Y-124583931D01*
X98371613Y-122276764D01*
X98371690Y-122275787D01*
X98371956Y-122274843D01*
X98372402Y-122273970D01*
X98373009Y-122273201D01*
X98373754Y-122272564D01*
X98374609Y-122272086D01*
X98375542Y-122271783D01*
X98376612Y-122271667D01*
X103070225Y-122271667D01*
X104096982Y-122272122D01*
G37*
%TD.AperFunction*%
%TA.AperFunction,SMDPad,CuDef*%
%TO.P,G\u002A\u002A\u002A,8*%
G36*
X120983151Y-122281702D02*
G01*
X120983197Y-122281702D01*
X121443006Y-122286590D01*
X121443084Y-122286592D01*
X121803124Y-122296046D01*
X121803255Y-122296051D01*
X122080916Y-122310598D01*
X122081126Y-122310613D01*
X122293794Y-122330783D01*
X122294109Y-122330823D01*
X122459170Y-122357142D01*
X122459571Y-122357223D01*
X122594413Y-122390220D01*
X122594693Y-122390297D01*
X122642713Y-122405047D01*
X122643267Y-122405254D01*
X123278480Y-122686119D01*
X123279294Y-122686574D01*
X123864503Y-123089529D01*
X123865190Y-123090099D01*
X124361306Y-123582729D01*
X124361939Y-123583497D01*
X124729869Y-124133387D01*
X124730165Y-124133891D01*
X124732070Y-124137617D01*
X124732119Y-124137716D01*
X124820025Y-124319474D01*
X124820154Y-124319763D01*
X124894936Y-124503186D01*
X124895077Y-124503577D01*
X124957793Y-124703481D01*
X124957901Y-124703887D01*
X125009608Y-124935090D01*
X125009673Y-124935437D01*
X125051429Y-125212754D01*
X125051462Y-125213014D01*
X125084325Y-125551262D01*
X125084339Y-125551444D01*
X125109367Y-125965440D01*
X125109373Y-125965561D01*
X125127624Y-126470121D01*
X125127626Y-126470199D01*
X125140157Y-127080139D01*
X125140158Y-127080188D01*
X125148027Y-127810325D01*
X125148027Y-127810354D01*
X125152293Y-128675506D01*
X125152293Y-128675523D01*
X125154012Y-129690504D01*
X125154012Y-129690509D01*
X125154196Y-130044831D01*
X125155666Y-134468664D01*
X125155570Y-134469640D01*
X125155286Y-134470578D01*
X125154825Y-134471443D01*
X125154203Y-134472201D01*
X125153446Y-134472823D01*
X125152582Y-134473285D01*
X125151644Y-134473570D01*
X125150666Y-134473667D01*
X112874000Y-134473667D01*
X112873025Y-134473571D01*
X112872087Y-134473286D01*
X112871222Y-134472824D01*
X112870464Y-134472203D01*
X112869843Y-134471445D01*
X112869381Y-134470580D01*
X112869096Y-134469642D01*
X112869000Y-134468665D01*
X112870470Y-130044832D01*
X112870470Y-130044829D01*
X112871593Y-128979778D01*
X112871593Y-128979765D01*
X112874915Y-128069203D01*
X112874915Y-128069178D01*
X112881504Y-127298262D01*
X112881505Y-127298220D01*
X112892431Y-126652108D01*
X112892432Y-126652041D01*
X112908764Y-126115891D01*
X112908769Y-126115785D01*
X112931576Y-125674756D01*
X112931587Y-125674595D01*
X112961940Y-125313845D01*
X112961965Y-125313610D01*
X113000932Y-125018297D01*
X113000985Y-125017976D01*
X113049636Y-124773258D01*
X113049731Y-124772866D01*
X113109136Y-124563902D01*
X113109269Y-124563498D01*
X113180497Y-124375446D01*
X113180634Y-124375119D01*
X113264754Y-124193136D01*
X113264826Y-124192988D01*
X113297133Y-124128723D01*
X113297427Y-124128215D01*
X113546955Y-123750176D01*
X113547402Y-123749596D01*
X113904468Y-123350507D01*
X113904851Y-123350123D01*
X114321361Y-122975654D01*
X114321807Y-122975297D01*
X114749664Y-122671119D01*
X114750148Y-122670815D01*
X114945920Y-122562945D01*
X114946137Y-122562832D01*
X115454137Y-122314508D01*
X115455056Y-122314166D01*
X115456296Y-122314000D01*
X118831208Y-122289155D01*
X118831212Y-122289155D01*
X119694645Y-122283512D01*
X119694659Y-122283512D01*
X120406163Y-122280852D01*
X120406189Y-122280852D01*
X120983151Y-122281702D01*
G37*
%TD.AperFunction*%
%TA.AperFunction,SMDPad,CuDef*%
%TO.P,G\u002A\u002A\u002A,9*%
G36*
X139629618Y-122267699D02*
G01*
X139630557Y-122267979D01*
X139631424Y-122268437D01*
X139632184Y-122269055D01*
X139632810Y-122269810D01*
X139633276Y-122270672D01*
X139633565Y-122271609D01*
X139633666Y-122272608D01*
X139633666Y-134468667D01*
X139633570Y-134469642D01*
X139633285Y-134470580D01*
X139632823Y-134471445D01*
X139632202Y-134472203D01*
X139631444Y-134472824D01*
X139630579Y-134473286D01*
X139629641Y-134473571D01*
X139628666Y-134473667D01*
X127431364Y-134473667D01*
X127430389Y-134473571D01*
X127429451Y-134473286D01*
X127428586Y-134472824D01*
X127427828Y-134472203D01*
X127427207Y-134471445D01*
X127426745Y-134470580D01*
X127426460Y-134469642D01*
X127426364Y-134468642D01*
X127450182Y-129621475D01*
X127474000Y-124774309D01*
X127474101Y-124773334D01*
X127474512Y-124772130D01*
X127711179Y-124290189D01*
X127711421Y-124289752D01*
X128123144Y-123627738D01*
X128123815Y-123626883D01*
X128650702Y-123088104D01*
X128651549Y-123087410D01*
X129300767Y-122664674D01*
X129301243Y-122664400D01*
X129362715Y-122633381D01*
X129362751Y-122633363D01*
X130007779Y-122314518D01*
X130008696Y-122314172D01*
X130009971Y-122314000D01*
X134819306Y-122290804D01*
X139628642Y-122267608D01*
X139629618Y-122267699D01*
G37*
%TD.AperFunction*%
%TA.AperFunction,SMDPad,CuDef*%
%TO.P,G\u002A\u002A\u002A,5*%
G36*
X120512757Y-107718072D02*
G01*
X120512807Y-107718072D01*
X121159802Y-107724797D01*
X121159882Y-107724799D01*
X121665998Y-107738197D01*
X121666136Y-107738202D01*
X122040820Y-107758466D01*
X122041087Y-107758488D01*
X122293788Y-107785811D01*
X122294159Y-107785865D01*
X122357574Y-107797572D01*
X122358246Y-107797745D01*
X123072727Y-108035753D01*
X123073706Y-108036201D01*
X123706590Y-108413166D01*
X123707440Y-108413804D01*
X124242567Y-108912506D01*
X124243257Y-108913301D01*
X124664466Y-109516518D01*
X124664974Y-109517439D01*
X124956105Y-110207950D01*
X124956369Y-110208766D01*
X125066148Y-110683500D01*
X125066251Y-110684118D01*
X125092259Y-110938821D01*
X125092278Y-110939060D01*
X125113604Y-111335070D01*
X125113608Y-111335176D01*
X125130250Y-111844530D01*
X125130252Y-111844592D01*
X125142211Y-112439330D01*
X125142212Y-112439375D01*
X125149488Y-113091534D01*
X125149488Y-113091571D01*
X125152080Y-113773189D01*
X125152080Y-113773223D01*
X125149989Y-114456338D01*
X125149989Y-114456375D01*
X125143215Y-115113026D01*
X125143214Y-115113069D01*
X125131757Y-115715294D01*
X125131756Y-115715354D01*
X125115615Y-116235190D01*
X125115611Y-116235289D01*
X125094787Y-116644775D01*
X125094771Y-116644989D01*
X125069264Y-116916164D01*
X125069229Y-116916452D01*
X125066220Y-116936131D01*
X125066105Y-116936677D01*
X124864553Y-117684109D01*
X124864168Y-117685100D01*
X124520391Y-118351279D01*
X124519785Y-118352191D01*
X124043987Y-118921786D01*
X124043190Y-118922551D01*
X123445579Y-119380230D01*
X123445121Y-119380542D01*
X123434876Y-119386720D01*
X123434806Y-119386761D01*
X123214901Y-119514569D01*
X123214656Y-119514703D01*
X123008100Y-119619768D01*
X123007684Y-119619956D01*
X122795549Y-119704476D01*
X122795044Y-119704646D01*
X122558406Y-119770817D01*
X122557939Y-119770924D01*
X122277872Y-119820943D01*
X122277517Y-119820993D01*
X121935095Y-119857057D01*
X121934857Y-119857077D01*
X121511155Y-119881384D01*
X121511010Y-119881390D01*
X120987101Y-119896135D01*
X120987017Y-119896137D01*
X120343977Y-119903519D01*
X120343934Y-119903519D01*
X119562835Y-119905735D01*
X119562819Y-119905735D01*
X118969998Y-119905442D01*
X118969990Y-119905442D01*
X118150686Y-119903804D01*
X118150670Y-119903804D01*
X117481771Y-119900391D01*
X117481741Y-119900391D01*
X116944319Y-119894349D01*
X116944263Y-119894348D01*
X116519390Y-119884823D01*
X116519293Y-119884820D01*
X116188043Y-119870960D01*
X116187882Y-119870950D01*
X115931327Y-119851901D01*
X115931077Y-119851876D01*
X115730292Y-119826785D01*
X115729955Y-119826731D01*
X115566011Y-119794745D01*
X115565655Y-119794663D01*
X115419625Y-119754927D01*
X115419444Y-119754874D01*
X115383372Y-119743583D01*
X115382839Y-119743382D01*
X114685147Y-119434028D01*
X114684231Y-119433499D01*
X114070756Y-118986872D01*
X114069985Y-118986178D01*
X113561386Y-118421960D01*
X113560772Y-118421116D01*
X113177710Y-117758985D01*
X113177413Y-117758381D01*
X113099078Y-117567728D01*
X113099002Y-117567530D01*
X113051279Y-117435696D01*
X113051190Y-117435427D01*
X113012338Y-117305594D01*
X113012236Y-117305195D01*
X112981345Y-117159100D01*
X112981280Y-117158720D01*
X112957439Y-116978102D01*
X112957410Y-116977826D01*
X112939707Y-116744419D01*
X112939697Y-116744246D01*
X112927221Y-116439788D01*
X112927218Y-116439687D01*
X112919059Y-116045915D01*
X112919058Y-116045858D01*
X112914303Y-115544508D01*
X112914303Y-115544479D01*
X112912043Y-114917289D01*
X112912043Y-114917275D01*
X112911365Y-114145981D01*
X112911365Y-114145977D01*
X112911333Y-113810000D01*
X112911333Y-113809998D01*
X112911689Y-112977936D01*
X112911689Y-112977926D01*
X112913348Y-112296995D01*
X112913348Y-112296972D01*
X112917193Y-111748971D01*
X112917194Y-111748926D01*
X112924110Y-111315655D01*
X112924112Y-111315574D01*
X112934982Y-110978830D01*
X112934988Y-110978688D01*
X112950697Y-110720270D01*
X112950717Y-110720036D01*
X112972149Y-110521744D01*
X112972198Y-110521399D01*
X113000237Y-110365030D01*
X113000329Y-110364618D01*
X113035859Y-110231972D01*
X113035963Y-110231634D01*
X113079869Y-110104509D01*
X113079913Y-110104385D01*
X113093298Y-110068699D01*
X113093504Y-110068227D01*
X113447565Y-109357061D01*
X113448124Y-109356182D01*
X113926227Y-108753461D01*
X113926981Y-108752695D01*
X114517664Y-108270310D01*
X114518521Y-108269747D01*
X115136350Y-107948547D01*
X115136845Y-107948322D01*
X115268163Y-107897307D01*
X115268434Y-107897211D01*
X115396775Y-107855675D01*
X115397191Y-107855560D01*
X115541225Y-107822346D01*
X115541627Y-107822270D01*
X115720028Y-107796222D01*
X115720319Y-107796189D01*
X115951755Y-107776151D01*
X115951936Y-107776138D01*
X116255081Y-107760954D01*
X116255185Y-107760950D01*
X116648708Y-107749463D01*
X116648765Y-107749462D01*
X117151338Y-107740518D01*
X117151367Y-107740517D01*
X117781662Y-107732959D01*
X117781675Y-107732959D01*
X118558362Y-107725630D01*
X118558365Y-107725630D01*
X118758289Y-107723867D01*
X118758301Y-107723867D01*
X119715400Y-107717827D01*
X119715434Y-107717827D01*
X120512757Y-107718072D01*
G37*
%TD.AperFunction*%
%TD*%
D11*
%TO.P,REF\u002A\u002A,1*%
%TO.N,N/C*%
X91166726Y-146833274D03*
X90000000Y-146350000D03*
X88833274Y-146833274D03*
X88350000Y-148000000D03*
X88833274Y-149166726D03*
X90000000Y-149650000D03*
X91166726Y-149166726D03*
X91650000Y-148000000D03*
D12*
X90000000Y-148000000D03*
%TD*%
D11*
%TO.P,REF\u002A\u002A,1*%
%TO.N,N/C*%
X149166726Y-146833274D03*
X148000000Y-146350000D03*
X146833274Y-146833274D03*
X146350000Y-148000000D03*
X146833274Y-149166726D03*
X148000000Y-149650000D03*
X149166726Y-149166726D03*
X149650000Y-148000000D03*
D12*
X148000000Y-148000000D03*
%TD*%
D11*
%TO.P,REF\u002A\u002A,1*%
%TO.N,N/C*%
X149166726Y-88833274D03*
X148000000Y-88350000D03*
X146833274Y-88833274D03*
X146350000Y-90000000D03*
X146833274Y-91166726D03*
X148000000Y-91650000D03*
X149166726Y-91166726D03*
X149650000Y-90000000D03*
D12*
X148000000Y-90000000D03*
%TD*%
D11*
%TO.P,REF\u002A\u002A,1*%
%TO.N,N/C*%
X91166726Y-88833274D03*
X90000000Y-88350000D03*
X88833274Y-88833274D03*
X88350000Y-90000000D03*
X88833274Y-91166726D03*
X90000000Y-91650000D03*
X91166726Y-91166726D03*
X91650000Y-90000000D03*
D12*
X90000000Y-90000000D03*
%TD*%
M02*
