%TF.GenerationSoftware,KiCad,Pcbnew,5.1.6-1.fc32*%
%TF.CreationDate,2020-07-08T21:06:17-05:00*%
%TF.ProjectId,source_pad,736f7572-6365-45f7-9061-642e6b696361,rev?*%
%TF.SameCoordinates,Original*%
%TF.FileFunction,Copper,L2,Bot*%
%TF.FilePolarity,Positive*%
%FSLAX46Y46*%
G04 Gerber Fmt 4.6, Leading zero omitted, Abs format (unit mm)*
G04 Created by KiCad (PCBNEW 5.1.6-1.fc32) date 2020-07-08 21:06:17*
%MOMM*%
%LPD*%
G01*
G04 APERTURE LIST*
%TA.AperFunction,ComponentPad*%
%ADD10C,0.700000*%
%TD*%
%TA.AperFunction,ComponentPad*%
%ADD11C,4.400000*%
%TD*%
%TA.AperFunction,ComponentPad*%
%ADD12O,2.500000X2.000000*%
%TD*%
%TA.AperFunction,ComponentPad*%
%ADD13C,1.524000*%
%TD*%
%TA.AperFunction,ComponentPad*%
%ADD14C,1.397000*%
%TD*%
%TA.AperFunction,ComponentPad*%
%ADD15R,1.397000X1.397000*%
%TD*%
%TA.AperFunction,Conductor*%
%ADD16C,0.250000*%
%TD*%
G04 APERTURE END LIST*
D10*
%TO.P,REF\u002A\u002A,1*%
%TO.N,N/C*%
X93666726Y-144833274D03*
X92500000Y-144350000D03*
X91333274Y-144833274D03*
X90850000Y-146000000D03*
X91333274Y-147166726D03*
X92500000Y-147650000D03*
X93666726Y-147166726D03*
X94150000Y-146000000D03*
D11*
X92500000Y-146000000D03*
%TD*%
D10*
%TO.P,REF\u002A\u002A,1*%
%TO.N,N/C*%
X146666726Y-144833274D03*
X145500000Y-144350000D03*
X144333274Y-144833274D03*
X143850000Y-146000000D03*
X144333274Y-147166726D03*
X145500000Y-147650000D03*
X146666726Y-147166726D03*
X147150000Y-146000000D03*
D11*
X145500000Y-146000000D03*
%TD*%
D10*
%TO.P,REF\u002A\u002A,1*%
%TO.N,N/C*%
X146666726Y-91333274D03*
X145500000Y-90850000D03*
X144333274Y-91333274D03*
X143850000Y-92500000D03*
X144333274Y-93666726D03*
X145500000Y-94150000D03*
X146666726Y-93666726D03*
X147150000Y-92500000D03*
D11*
X145500000Y-92500000D03*
%TD*%
D10*
%TO.P,REF\u002A\u002A,1*%
%TO.N,N/C*%
X93666726Y-91333274D03*
X92500000Y-90850000D03*
X91333274Y-91333274D03*
X90850000Y-92500000D03*
X91333274Y-93666726D03*
X92500000Y-94150000D03*
X93666726Y-93666726D03*
X94150000Y-92500000D03*
D11*
X92500000Y-92500000D03*
%TD*%
D12*
%TO.P,SW1,1*%
%TO.N,col0*%
X96190000Y-97460000D03*
%TO.P,SW1,2*%
%TO.N,Net-(D1-Pad2)*%
X102540000Y-94920000D03*
%TD*%
%TO.P,SW2,2*%
%TO.N,Net-(D2-Pad2)*%
X102540000Y-113920000D03*
%TO.P,SW2,1*%
%TO.N,col0*%
X96190000Y-116460000D03*
%TD*%
%TO.P,SW3,2*%
%TO.N,Net-(D3-Pad2)*%
X102540000Y-132920000D03*
%TO.P,SW3,1*%
%TO.N,col0*%
X96190000Y-135460000D03*
%TD*%
%TO.P,SW4,1*%
%TO.N,col1*%
X115190000Y-97460000D03*
%TO.P,SW4,2*%
%TO.N,Net-(D4-Pad2)*%
X121540000Y-94920000D03*
%TD*%
%TO.P,SW5,2*%
%TO.N,Net-(D5-Pad2)*%
X121540000Y-113920000D03*
%TO.P,SW5,1*%
%TO.N,col1*%
X115190000Y-116460000D03*
%TD*%
%TO.P,SW6,2*%
%TO.N,Net-(D6-Pad2)*%
X121540000Y-132920000D03*
%TO.P,SW6,1*%
%TO.N,col1*%
X115190000Y-135460000D03*
%TD*%
%TO.P,SW7,2*%
%TO.N,Net-(D7-Pad2)*%
X140540000Y-94920000D03*
%TO.P,SW7,1*%
%TO.N,col2*%
X134190000Y-97460000D03*
%TD*%
%TO.P,SW8,1*%
%TO.N,col2*%
X134190000Y-116460000D03*
%TO.P,SW8,2*%
%TO.N,Net-(D8-Pad2)*%
X140540000Y-113920000D03*
%TD*%
%TO.P,SW9,1*%
%TO.N,col2*%
X134190000Y-135460000D03*
%TO.P,SW9,2*%
%TO.N,Net-(D9-Pad2)*%
X140540000Y-132920000D03*
%TD*%
D13*
%TO.P,U1,1*%
%TO.N,Net-(U1-Pad1)*%
X111263600Y-93522000D03*
%TO.P,U1,2*%
%TO.N,Net-(U1-Pad2)*%
X111263600Y-96062000D03*
%TO.P,U1,3*%
%TO.N,Net-(U1-Pad3)*%
X111263600Y-98602000D03*
%TO.P,U1,4*%
%TO.N,Net-(U1-Pad4)*%
X111263600Y-101142000D03*
%TO.P,U1,5*%
%TO.N,Net-(U1-Pad5)*%
X111263600Y-103682000D03*
%TO.P,U1,6*%
%TO.N,Net-(U1-Pad6)*%
X111263600Y-106222000D03*
%TO.P,U1,7*%
%TO.N,row0*%
X111263600Y-108762000D03*
%TO.P,U1,8*%
%TO.N,row1*%
X111263600Y-111302000D03*
%TO.P,U1,9*%
%TO.N,row2*%
X111263600Y-113842000D03*
%TO.P,U1,10*%
%TO.N,Net-(U1-Pad10)*%
X111263600Y-116382000D03*
%TO.P,U1,11*%
%TO.N,Net-(U1-Pad11)*%
X111263600Y-118922000D03*
%TO.P,U1,12*%
%TO.N,Net-(U1-Pad12)*%
X111263600Y-121462000D03*
%TO.P,U1,13*%
%TO.N,Net-(U1-Pad13)*%
X126483600Y-121462000D03*
%TO.P,U1,14*%
%TO.N,Net-(U1-Pad14)*%
X126483600Y-118922000D03*
%TO.P,U1,15*%
%TO.N,Net-(U1-Pad15)*%
X126483600Y-116382000D03*
%TO.P,U1,16*%
%TO.N,Net-(U1-Pad16)*%
X126483600Y-113842000D03*
%TO.P,U1,17*%
%TO.N,Net-(U1-Pad17)*%
X126483600Y-111302000D03*
%TO.P,U1,18*%
%TO.N,col2*%
X126483600Y-108762000D03*
%TO.P,U1,19*%
%TO.N,col1*%
X126483600Y-106222000D03*
%TO.P,U1,20*%
%TO.N,col0*%
X126483600Y-103682000D03*
%TO.P,U1,21*%
%TO.N,Net-(U1-Pad21)*%
X126483600Y-101142000D03*
%TO.P,U1,22*%
%TO.N,Net-(U1-Pad22)*%
X126483600Y-98602000D03*
%TO.P,U1,23*%
%TO.N,Net-(U1-Pad23)*%
X126483600Y-96062000D03*
%TO.P,U1,24*%
%TO.N,Net-(U1-Pad24)*%
X126483600Y-93522000D03*
%TD*%
D14*
%TO.P,D1,2*%
%TO.N,Net-(D1-Pad2)*%
X96190000Y-108000000D03*
D15*
%TO.P,D1,1*%
%TO.N,row0*%
X103810000Y-108000000D03*
%TD*%
D14*
%TO.P,D2,2*%
%TO.N,Net-(D2-Pad2)*%
X96190000Y-127000000D03*
D15*
%TO.P,D2,1*%
%TO.N,row1*%
X103810000Y-127000000D03*
%TD*%
%TO.P,D3,1*%
%TO.N,row2*%
X103810000Y-146000000D03*
D14*
%TO.P,D3,2*%
%TO.N,Net-(D3-Pad2)*%
X96190000Y-146000000D03*
%TD*%
D15*
%TO.P,D4,1*%
%TO.N,row0*%
X122810000Y-108000000D03*
D14*
%TO.P,D4,2*%
%TO.N,Net-(D4-Pad2)*%
X115190000Y-108000000D03*
%TD*%
D15*
%TO.P,D5,1*%
%TO.N,row1*%
X122810000Y-127000000D03*
D14*
%TO.P,D5,2*%
%TO.N,Net-(D5-Pad2)*%
X115190000Y-127000000D03*
%TD*%
%TO.P,D6,2*%
%TO.N,Net-(D6-Pad2)*%
X115190000Y-146000000D03*
D15*
%TO.P,D6,1*%
%TO.N,row2*%
X122810000Y-146000000D03*
%TD*%
D14*
%TO.P,D7,2*%
%TO.N,Net-(D7-Pad2)*%
X134190000Y-108000000D03*
D15*
%TO.P,D7,1*%
%TO.N,row0*%
X141810000Y-108000000D03*
%TD*%
%TO.P,D8,1*%
%TO.N,row1*%
X141810000Y-127000000D03*
D14*
%TO.P,D8,2*%
%TO.N,Net-(D8-Pad2)*%
X134190000Y-127000000D03*
%TD*%
D15*
%TO.P,D9,1*%
%TO.N,row2*%
X141810000Y-146000000D03*
D14*
%TO.P,D9,2*%
%TO.N,Net-(D9-Pad2)*%
X134190000Y-146000000D03*
%TD*%
D16*
%TO.N,col0*%
X91968750Y-131238750D02*
X96190000Y-135460000D01*
X93508750Y-97460000D02*
X91968750Y-99000000D01*
X96190000Y-97460000D02*
X93508750Y-97460000D01*
X92928750Y-116460000D02*
X91968750Y-115500000D01*
X96190000Y-116460000D02*
X92928750Y-116460000D01*
X91968750Y-115500000D02*
X91968750Y-131238750D01*
X91968750Y-99000000D02*
X91968750Y-115500000D01*
X121325001Y-98139981D02*
X121325001Y-101054651D01*
X96190000Y-95903750D02*
X98498760Y-93594990D01*
X96190000Y-97460000D02*
X96190000Y-95903750D01*
X123952350Y-103682000D02*
X126483600Y-103682000D01*
X121325001Y-101054651D02*
X123952350Y-103682000D01*
X118160019Y-94974999D02*
X121325001Y-98139981D01*
X111107837Y-94974999D02*
X118160019Y-94974999D01*
X109727828Y-93594990D02*
X111107837Y-94974999D01*
X98498760Y-93594990D02*
X109727828Y-93594990D01*
%TO.N,col1*%
X115190000Y-97460000D02*
X115190000Y-104127500D01*
X115190000Y-104127500D02*
X113437500Y-105880000D01*
X113437500Y-105880000D02*
X113437500Y-115125000D01*
X114772500Y-116460000D02*
X115190000Y-116460000D01*
X113437500Y-115125000D02*
X114772500Y-116460000D01*
X115190000Y-116460000D02*
X115190000Y-122841250D01*
X115190000Y-122841250D02*
X113250000Y-124781250D01*
X113250000Y-124781250D02*
X113250000Y-133968750D01*
X114741250Y-135460000D02*
X115190000Y-135460000D01*
X113250000Y-133968750D02*
X114741250Y-135460000D01*
X115190000Y-97460000D02*
X115190000Y-97565000D01*
X116690000Y-116460000D02*
X124209250Y-108940750D01*
X115190000Y-116460000D02*
X116690000Y-116460000D01*
X124209250Y-108496350D02*
X126483600Y-106222000D01*
X124209250Y-108940750D02*
X124209250Y-108496350D01*
%TO.N,col2*%
X134190000Y-97460000D02*
X134190000Y-104872500D01*
X134190000Y-104872500D02*
X131718750Y-107343750D01*
X131718750Y-107343750D02*
X131718750Y-116156250D01*
X132022500Y-116460000D02*
X134190000Y-116460000D01*
X131718750Y-116156250D02*
X132022500Y-116460000D01*
X131718750Y-116718750D02*
X130125000Y-118312500D01*
X130125000Y-131395000D02*
X134190000Y-135460000D01*
X130125000Y-118312500D02*
X130125000Y-131395000D01*
X131718750Y-113997150D02*
X126483600Y-108762000D01*
X131718750Y-116156250D02*
X131718750Y-116437500D01*
X131718750Y-116437500D02*
X131718750Y-113997150D01*
X131718750Y-116437500D02*
X131718750Y-116718750D01*
%TD*%
M02*
