M48
; DRILL file {KiCad 5.1.6-1.fc32} date Wed Jul  8 21:06:16 2020
; FORMAT={-:-/ absolute / metric / decimal}
; #@! TF.CreationDate,2020-07-08T21:06:16-05:00
; #@! TF.GenerationSoftware,Kicad,Pcbnew,5.1.6-1.fc32
; #@! TF.FileFunction,Plated,1,2,PTH
FMAT,2
METRIC
T1C0.400
T2C0.800
T3C0.813
T4C2.200
%
G90
G05
T1
X143.85Y-146.0
X144.333Y-144.833
X144.333Y-147.167
X145.5Y-144.35
X145.5Y-147.65
X146.667Y-144.833
X146.667Y-147.167
X147.15Y-146.0
X143.85Y-92.5
X144.333Y-91.333
X144.333Y-93.667
X145.5Y-90.85
X145.5Y-94.15
X146.667Y-91.333
X146.667Y-93.667
X147.15Y-92.5
X90.85Y-92.5
X91.333Y-91.333
X91.333Y-93.667
X92.5Y-90.85
X92.5Y-94.15
X93.667Y-91.333
X93.667Y-93.667
X94.15Y-92.5
X90.85Y-146.0
X91.333Y-144.833
X91.333Y-147.167
X92.5Y-144.35
X92.5Y-147.65
X93.667Y-144.833
X93.667Y-147.167
X94.15Y-146.0
T3
X96.19Y-127.0
X103.81Y-127.0
X115.19Y-146.0
X122.81Y-146.0
X96.19Y-108.0
X103.81Y-108.0
X115.19Y-127.0
X122.81Y-127.0
X96.19Y-146.0
X103.81Y-146.0
X111.264Y-93.522
X111.264Y-96.062
X111.264Y-98.602
X111.264Y-101.142
X111.264Y-103.682
X111.264Y-106.222
X111.264Y-108.762
X111.264Y-111.302
X111.264Y-113.842
X111.264Y-116.382
X111.264Y-118.922
X111.264Y-121.462
X126.484Y-93.522
X126.484Y-96.062
X126.484Y-98.602
X126.484Y-101.142
X126.484Y-103.682
X126.484Y-106.222
X126.484Y-108.762
X126.484Y-111.302
X126.484Y-113.842
X126.484Y-116.382
X126.484Y-118.922
X126.484Y-121.462
X134.19Y-127.0
X141.81Y-127.0
X134.19Y-146.0
X141.81Y-146.0
X134.19Y-108.0
X141.81Y-108.0
X115.19Y-108.0
X122.81Y-108.0
T4
X145.5Y-146.0
X145.5Y-92.5
X92.5Y-92.5
X92.5Y-146.0
T2
G00X114.99Y-97.46
M15
G01X115.39Y-97.46
M16
G05
G00X121.34Y-94.92
M15
G01X121.74Y-94.92
M16
G05
G00X133.99Y-135.46
M15
G01X134.39Y-135.46
M16
G05
G00X140.34Y-132.92
M15
G01X140.74Y-132.92
M16
G05
G00X133.99Y-116.46
M15
G01X134.39Y-116.46
M16
G05
G00X140.34Y-113.92
M15
G01X140.74Y-113.92
M16
G05
G00X95.99Y-135.46
M15
G01X96.39Y-135.46
M16
G05
G00X102.34Y-132.92
M15
G01X102.74Y-132.92
M16
G05
G00X133.99Y-97.46
M15
G01X134.39Y-97.46
M16
G05
G00X140.34Y-94.92
M15
G01X140.74Y-94.92
M16
G05
G00X114.99Y-135.46
M15
G01X115.39Y-135.46
M16
G05
G00X121.34Y-132.92
M15
G01X121.74Y-132.92
M16
G05
G00X95.99Y-116.46
M15
G01X96.39Y-116.46
M16
G05
G00X102.34Y-113.92
M15
G01X102.74Y-113.92
M16
G05
G00X95.99Y-97.46
M15
G01X96.39Y-97.46
M16
G05
G00X102.34Y-94.92
M15
G01X102.74Y-94.92
M16
G05
G00X114.99Y-116.46
M15
G01X115.39Y-116.46
M16
G05
G00X121.34Y-113.92
M15
G01X121.74Y-113.92
M16
G05
T0
M30
