%TF.GenerationSoftware,KiCad,Pcbnew,5.1.6-1.fc32*%
%TF.CreationDate,2020-07-08T21:06:17-05:00*%
%TF.ProjectId,source_pad,736f7572-6365-45f7-9061-642e6b696361,rev?*%
%TF.SameCoordinates,Original*%
%TF.FileFunction,Soldermask,Top*%
%TF.FilePolarity,Negative*%
%FSLAX46Y46*%
G04 Gerber Fmt 4.6, Leading zero omitted, Abs format (unit mm)*
G04 Created by KiCad (PCBNEW 5.1.6-1.fc32) date 2020-07-08 21:06:17*
%MOMM*%
%LPD*%
G01*
G04 APERTURE LIST*
%ADD10C,0.800000*%
%ADD11C,4.500000*%
%ADD12C,2.000000*%
%ADD13C,4.100000*%
%ADD14C,1.624000*%
%ADD15R,1.400000X1.050000*%
%ADD16C,1.497000*%
%ADD17R,1.497000X1.497000*%
G04 APERTURE END LIST*
D10*
%TO.C,REF\u002A\u002A*%
X93666726Y-144833274D03*
X92500000Y-144350000D03*
X91333274Y-144833274D03*
X90850000Y-146000000D03*
X91333274Y-147166726D03*
X92500000Y-147650000D03*
X93666726Y-147166726D03*
X94150000Y-146000000D03*
D11*
X92500000Y-146000000D03*
%TD*%
D10*
%TO.C,REF\u002A\u002A*%
X146666726Y-144833274D03*
X145500000Y-144350000D03*
X144333274Y-144833274D03*
X143850000Y-146000000D03*
X144333274Y-147166726D03*
X145500000Y-147650000D03*
X146666726Y-147166726D03*
X147150000Y-146000000D03*
D11*
X145500000Y-146000000D03*
%TD*%
D10*
%TO.C,REF\u002A\u002A*%
X146666726Y-91333274D03*
X145500000Y-90850000D03*
X144333274Y-91333274D03*
X143850000Y-92500000D03*
X144333274Y-93666726D03*
X145500000Y-94150000D03*
X146666726Y-93666726D03*
X147150000Y-92500000D03*
D11*
X145500000Y-92500000D03*
%TD*%
D10*
%TO.C,REF\u002A\u002A*%
X93666726Y-91333274D03*
X92500000Y-90850000D03*
X91333274Y-91333274D03*
X90850000Y-92500000D03*
X91333274Y-93666726D03*
X92500000Y-94150000D03*
X93666726Y-93666726D03*
X94150000Y-92500000D03*
D11*
X92500000Y-92500000D03*
%TD*%
D12*
%TO.C,SW1*%
X105500000Y-100000000D03*
X94500000Y-100000000D03*
D13*
X100000000Y-100000000D03*
%TD*%
%TO.C,SW2*%
X100000000Y-119000000D03*
D12*
X94500000Y-119000000D03*
X105500000Y-119000000D03*
%TD*%
D13*
%TO.C,SW3*%
X100000000Y-138000000D03*
D12*
X94500000Y-138000000D03*
X105500000Y-138000000D03*
%TD*%
%TO.C,SW4*%
X124500000Y-100000000D03*
X113500000Y-100000000D03*
D13*
X119000000Y-100000000D03*
%TD*%
%TO.C,SW5*%
X119000000Y-119000000D03*
D12*
X113500000Y-119000000D03*
X124500000Y-119000000D03*
%TD*%
D13*
%TO.C,SW6*%
X119000000Y-138000000D03*
D12*
X113500000Y-138000000D03*
X124500000Y-138000000D03*
%TD*%
D13*
%TO.C,SW7*%
X138000000Y-100000000D03*
D12*
X132500000Y-100000000D03*
X143500000Y-100000000D03*
%TD*%
%TO.C,SW8*%
X143500000Y-119000000D03*
X132500000Y-119000000D03*
D13*
X138000000Y-119000000D03*
%TD*%
D12*
%TO.C,SW9*%
X143500000Y-138000000D03*
X132500000Y-138000000D03*
D13*
X138000000Y-138000000D03*
%TD*%
D14*
%TO.C,U1*%
X111263600Y-93522000D03*
X111263600Y-96062000D03*
X111263600Y-98602000D03*
X111263600Y-101142000D03*
X111263600Y-103682000D03*
X111263600Y-106222000D03*
X111263600Y-108762000D03*
X111263600Y-111302000D03*
X111263600Y-113842000D03*
X111263600Y-116382000D03*
X111263600Y-118922000D03*
X111263600Y-121462000D03*
X126483600Y-121462000D03*
X126483600Y-118922000D03*
X126483600Y-116382000D03*
X126483600Y-113842000D03*
X126483600Y-111302000D03*
X126483600Y-108762000D03*
X126483600Y-106222000D03*
X126483600Y-103682000D03*
X126483600Y-101142000D03*
X126483600Y-98602000D03*
X126483600Y-96062000D03*
X126483600Y-93522000D03*
%TD*%
D15*
%TO.C,D1*%
X98225000Y-108000000D03*
D16*
X96190000Y-108000000D03*
D17*
X103810000Y-108000000D03*
D15*
X101775000Y-108000000D03*
%TD*%
%TO.C,D2*%
X98225000Y-127000000D03*
D16*
X96190000Y-127000000D03*
D17*
X103810000Y-127000000D03*
D15*
X101775000Y-127000000D03*
%TD*%
%TO.C,D3*%
X101775000Y-146000000D03*
D17*
X103810000Y-146000000D03*
D16*
X96190000Y-146000000D03*
D15*
X98225000Y-146000000D03*
%TD*%
%TO.C,D4*%
X120775000Y-108000000D03*
D17*
X122810000Y-108000000D03*
D16*
X115190000Y-108000000D03*
D15*
X117225000Y-108000000D03*
%TD*%
%TO.C,D5*%
X120775000Y-127000000D03*
D17*
X122810000Y-127000000D03*
D16*
X115190000Y-127000000D03*
D15*
X117225000Y-127000000D03*
%TD*%
%TO.C,D6*%
X117225000Y-146000000D03*
D16*
X115190000Y-146000000D03*
D17*
X122810000Y-146000000D03*
D15*
X120775000Y-146000000D03*
%TD*%
%TO.C,D7*%
X136225000Y-108000000D03*
D16*
X134190000Y-108000000D03*
D17*
X141810000Y-108000000D03*
D15*
X139775000Y-108000000D03*
%TD*%
%TO.C,D8*%
X139775000Y-127000000D03*
D17*
X141810000Y-127000000D03*
D16*
X134190000Y-127000000D03*
D15*
X136225000Y-127000000D03*
%TD*%
%TO.C,D9*%
X139775000Y-146000000D03*
D17*
X141810000Y-146000000D03*
D16*
X134190000Y-146000000D03*
D15*
X136225000Y-146000000D03*
%TD*%
M02*
