%TF.GenerationSoftware,KiCad,Pcbnew,5.1.6-1.fc32*%
%TF.CreationDate,2020-07-08T21:06:17-05:00*%
%TF.ProjectId,source_pad,736f7572-6365-45f7-9061-642e6b696361,rev?*%
%TF.SameCoordinates,Original*%
%TF.FileFunction,Soldermask,Bot*%
%TF.FilePolarity,Negative*%
%FSLAX46Y46*%
G04 Gerber Fmt 4.6, Leading zero omitted, Abs format (unit mm)*
G04 Created by KiCad (PCBNEW 5.1.6-1.fc32) date 2020-07-08 21:06:17*
%MOMM*%
%LPD*%
G01*
G04 APERTURE LIST*
%ADD10C,0.800000*%
%ADD11C,4.500000*%
%ADD12O,2.600000X2.100000*%
%ADD13C,2.000000*%
%ADD14C,4.100000*%
%ADD15C,1.497000*%
%ADD16R,1.497000X1.497000*%
G04 APERTURE END LIST*
D10*
%TO.C,REF\u002A\u002A*%
X93666726Y-144833274D03*
X92500000Y-144350000D03*
X91333274Y-144833274D03*
X90850000Y-146000000D03*
X91333274Y-147166726D03*
X92500000Y-147650000D03*
X93666726Y-147166726D03*
X94150000Y-146000000D03*
D11*
X92500000Y-146000000D03*
%TD*%
D10*
%TO.C,REF\u002A\u002A*%
X146666726Y-144833274D03*
X145500000Y-144350000D03*
X144333274Y-144833274D03*
X143850000Y-146000000D03*
X144333274Y-147166726D03*
X145500000Y-147650000D03*
X146666726Y-147166726D03*
X147150000Y-146000000D03*
D11*
X145500000Y-146000000D03*
%TD*%
D10*
%TO.C,REF\u002A\u002A*%
X146666726Y-91333274D03*
X145500000Y-90850000D03*
X144333274Y-91333274D03*
X143850000Y-92500000D03*
X144333274Y-93666726D03*
X145500000Y-94150000D03*
X146666726Y-93666726D03*
X147150000Y-92500000D03*
D11*
X145500000Y-92500000D03*
%TD*%
D10*
%TO.C,REF\u002A\u002A*%
X93666726Y-91333274D03*
X92500000Y-90850000D03*
X91333274Y-91333274D03*
X90850000Y-92500000D03*
X91333274Y-93666726D03*
X92500000Y-94150000D03*
X93666726Y-93666726D03*
X94150000Y-92500000D03*
D11*
X92500000Y-92500000D03*
%TD*%
D12*
%TO.C,SW1*%
X96190000Y-97460000D03*
X102540000Y-94920000D03*
D13*
X105500000Y-100000000D03*
X94500000Y-100000000D03*
D14*
X100000000Y-100000000D03*
%TD*%
%TO.C,SW2*%
X100000000Y-119000000D03*
D13*
X94500000Y-119000000D03*
X105500000Y-119000000D03*
D12*
X102540000Y-113920000D03*
X96190000Y-116460000D03*
%TD*%
D14*
%TO.C,SW3*%
X100000000Y-138000000D03*
D13*
X94500000Y-138000000D03*
X105500000Y-138000000D03*
D12*
X102540000Y-132920000D03*
X96190000Y-135460000D03*
%TD*%
%TO.C,SW4*%
X115190000Y-97460000D03*
X121540000Y-94920000D03*
D13*
X124500000Y-100000000D03*
X113500000Y-100000000D03*
D14*
X119000000Y-100000000D03*
%TD*%
%TO.C,SW5*%
X119000000Y-119000000D03*
D13*
X113500000Y-119000000D03*
X124500000Y-119000000D03*
D12*
X121540000Y-113920000D03*
X115190000Y-116460000D03*
%TD*%
D14*
%TO.C,SW6*%
X119000000Y-138000000D03*
D13*
X113500000Y-138000000D03*
X124500000Y-138000000D03*
D12*
X121540000Y-132920000D03*
X115190000Y-135460000D03*
%TD*%
D14*
%TO.C,SW7*%
X138000000Y-100000000D03*
D13*
X132500000Y-100000000D03*
X143500000Y-100000000D03*
D12*
X140540000Y-94920000D03*
X134190000Y-97460000D03*
%TD*%
%TO.C,SW8*%
X134190000Y-116460000D03*
X140540000Y-113920000D03*
D13*
X143500000Y-119000000D03*
X132500000Y-119000000D03*
D14*
X138000000Y-119000000D03*
%TD*%
D12*
%TO.C,SW9*%
X134190000Y-135460000D03*
X140540000Y-132920000D03*
D13*
X143500000Y-138000000D03*
X132500000Y-138000000D03*
D14*
X138000000Y-138000000D03*
%TD*%
D15*
%TO.C,D1*%
X96190000Y-108000000D03*
D16*
X103810000Y-108000000D03*
%TD*%
D15*
%TO.C,D2*%
X96190000Y-127000000D03*
D16*
X103810000Y-127000000D03*
%TD*%
%TO.C,D3*%
X103810000Y-146000000D03*
D15*
X96190000Y-146000000D03*
%TD*%
D16*
%TO.C,D4*%
X122810000Y-108000000D03*
D15*
X115190000Y-108000000D03*
%TD*%
D16*
%TO.C,D5*%
X122810000Y-127000000D03*
D15*
X115190000Y-127000000D03*
%TD*%
%TO.C,D6*%
X115190000Y-146000000D03*
D16*
X122810000Y-146000000D03*
%TD*%
D15*
%TO.C,D7*%
X134190000Y-108000000D03*
D16*
X141810000Y-108000000D03*
%TD*%
%TO.C,D8*%
X141810000Y-127000000D03*
D15*
X134190000Y-127000000D03*
%TD*%
D16*
%TO.C,D9*%
X141810000Y-146000000D03*
D15*
X134190000Y-146000000D03*
%TD*%
M02*
