%TF.GenerationSoftware,KiCad,Pcbnew,5.1.6-1.fc32*%
%TF.CreationDate,2020-07-08T21:06:17-05:00*%
%TF.ProjectId,source_pad,736f7572-6365-45f7-9061-642e6b696361,rev?*%
%TF.SameCoordinates,Original*%
%TF.FileFunction,Copper,L1,Top*%
%TF.FilePolarity,Positive*%
%FSLAX46Y46*%
G04 Gerber Fmt 4.6, Leading zero omitted, Abs format (unit mm)*
G04 Created by KiCad (PCBNEW 5.1.6-1.fc32) date 2020-07-08 21:06:17*
%MOMM*%
%LPD*%
G01*
G04 APERTURE LIST*
%TA.AperFunction,ComponentPad*%
%ADD10C,0.700000*%
%TD*%
%TA.AperFunction,ComponentPad*%
%ADD11C,4.400000*%
%TD*%
%TA.AperFunction,ComponentPad*%
%ADD12O,2.500000X2.000000*%
%TD*%
%TA.AperFunction,ComponentPad*%
%ADD13C,1.524000*%
%TD*%
%TA.AperFunction,SMDPad,CuDef*%
%ADD14R,1.300000X0.950000*%
%TD*%
%TA.AperFunction,ComponentPad*%
%ADD15C,1.397000*%
%TD*%
%TA.AperFunction,ComponentPad*%
%ADD16R,1.397000X1.397000*%
%TD*%
%TA.AperFunction,Conductor*%
%ADD17C,0.250000*%
%TD*%
G04 APERTURE END LIST*
D10*
%TO.P,REF\u002A\u002A,1*%
%TO.N,N/C*%
X93666726Y-144833274D03*
X92500000Y-144350000D03*
X91333274Y-144833274D03*
X90850000Y-146000000D03*
X91333274Y-147166726D03*
X92500000Y-147650000D03*
X93666726Y-147166726D03*
X94150000Y-146000000D03*
D11*
X92500000Y-146000000D03*
%TD*%
D10*
%TO.P,REF\u002A\u002A,1*%
%TO.N,N/C*%
X146666726Y-144833274D03*
X145500000Y-144350000D03*
X144333274Y-144833274D03*
X143850000Y-146000000D03*
X144333274Y-147166726D03*
X145500000Y-147650000D03*
X146666726Y-147166726D03*
X147150000Y-146000000D03*
D11*
X145500000Y-146000000D03*
%TD*%
D10*
%TO.P,REF\u002A\u002A,1*%
%TO.N,N/C*%
X146666726Y-91333274D03*
X145500000Y-90850000D03*
X144333274Y-91333274D03*
X143850000Y-92500000D03*
X144333274Y-93666726D03*
X145500000Y-94150000D03*
X146666726Y-93666726D03*
X147150000Y-92500000D03*
D11*
X145500000Y-92500000D03*
%TD*%
D10*
%TO.P,REF\u002A\u002A,1*%
%TO.N,N/C*%
X93666726Y-91333274D03*
X92500000Y-90850000D03*
X91333274Y-91333274D03*
X90850000Y-92500000D03*
X91333274Y-93666726D03*
X92500000Y-94150000D03*
X93666726Y-93666726D03*
X94150000Y-92500000D03*
D11*
X92500000Y-92500000D03*
%TD*%
D12*
%TO.P,SW1,1*%
%TO.N,col0*%
X96190000Y-97460000D03*
%TO.P,SW1,2*%
%TO.N,Net-(D1-Pad2)*%
X102540000Y-94920000D03*
%TD*%
%TO.P,SW2,2*%
%TO.N,Net-(D2-Pad2)*%
X102540000Y-113920000D03*
%TO.P,SW2,1*%
%TO.N,col0*%
X96190000Y-116460000D03*
%TD*%
%TO.P,SW3,2*%
%TO.N,Net-(D3-Pad2)*%
X102540000Y-132920000D03*
%TO.P,SW3,1*%
%TO.N,col0*%
X96190000Y-135460000D03*
%TD*%
%TO.P,SW4,1*%
%TO.N,col1*%
X115190000Y-97460000D03*
%TO.P,SW4,2*%
%TO.N,Net-(D4-Pad2)*%
X121540000Y-94920000D03*
%TD*%
%TO.P,SW5,2*%
%TO.N,Net-(D5-Pad2)*%
X121540000Y-113920000D03*
%TO.P,SW5,1*%
%TO.N,col1*%
X115190000Y-116460000D03*
%TD*%
%TO.P,SW6,2*%
%TO.N,Net-(D6-Pad2)*%
X121540000Y-132920000D03*
%TO.P,SW6,1*%
%TO.N,col1*%
X115190000Y-135460000D03*
%TD*%
%TO.P,SW7,2*%
%TO.N,Net-(D7-Pad2)*%
X140540000Y-94920000D03*
%TO.P,SW7,1*%
%TO.N,col2*%
X134190000Y-97460000D03*
%TD*%
%TO.P,SW8,1*%
%TO.N,col2*%
X134190000Y-116460000D03*
%TO.P,SW8,2*%
%TO.N,Net-(D8-Pad2)*%
X140540000Y-113920000D03*
%TD*%
%TO.P,SW9,1*%
%TO.N,col2*%
X134190000Y-135460000D03*
%TO.P,SW9,2*%
%TO.N,Net-(D9-Pad2)*%
X140540000Y-132920000D03*
%TD*%
D13*
%TO.P,U1,1*%
%TO.N,Net-(U1-Pad1)*%
X111263600Y-93522000D03*
%TO.P,U1,2*%
%TO.N,Net-(U1-Pad2)*%
X111263600Y-96062000D03*
%TO.P,U1,3*%
%TO.N,Net-(U1-Pad3)*%
X111263600Y-98602000D03*
%TO.P,U1,4*%
%TO.N,Net-(U1-Pad4)*%
X111263600Y-101142000D03*
%TO.P,U1,5*%
%TO.N,Net-(U1-Pad5)*%
X111263600Y-103682000D03*
%TO.P,U1,6*%
%TO.N,Net-(U1-Pad6)*%
X111263600Y-106222000D03*
%TO.P,U1,7*%
%TO.N,row0*%
X111263600Y-108762000D03*
%TO.P,U1,8*%
%TO.N,row1*%
X111263600Y-111302000D03*
%TO.P,U1,9*%
%TO.N,row2*%
X111263600Y-113842000D03*
%TO.P,U1,10*%
%TO.N,Net-(U1-Pad10)*%
X111263600Y-116382000D03*
%TO.P,U1,11*%
%TO.N,Net-(U1-Pad11)*%
X111263600Y-118922000D03*
%TO.P,U1,12*%
%TO.N,Net-(U1-Pad12)*%
X111263600Y-121462000D03*
%TO.P,U1,13*%
%TO.N,Net-(U1-Pad13)*%
X126483600Y-121462000D03*
%TO.P,U1,14*%
%TO.N,Net-(U1-Pad14)*%
X126483600Y-118922000D03*
%TO.P,U1,15*%
%TO.N,Net-(U1-Pad15)*%
X126483600Y-116382000D03*
%TO.P,U1,16*%
%TO.N,Net-(U1-Pad16)*%
X126483600Y-113842000D03*
%TO.P,U1,17*%
%TO.N,Net-(U1-Pad17)*%
X126483600Y-111302000D03*
%TO.P,U1,18*%
%TO.N,col2*%
X126483600Y-108762000D03*
%TO.P,U1,19*%
%TO.N,col1*%
X126483600Y-106222000D03*
%TO.P,U1,20*%
%TO.N,col0*%
X126483600Y-103682000D03*
%TO.P,U1,21*%
%TO.N,Net-(U1-Pad21)*%
X126483600Y-101142000D03*
%TO.P,U1,22*%
%TO.N,Net-(U1-Pad22)*%
X126483600Y-98602000D03*
%TO.P,U1,23*%
%TO.N,Net-(U1-Pad23)*%
X126483600Y-96062000D03*
%TO.P,U1,24*%
%TO.N,Net-(U1-Pad24)*%
X126483600Y-93522000D03*
%TD*%
D14*
%TO.P,D1,2*%
%TO.N,Net-(D1-Pad2)*%
X98225000Y-108000000D03*
D15*
X96190000Y-108000000D03*
D16*
%TO.P,D1,1*%
%TO.N,row0*%
X103810000Y-108000000D03*
D14*
X101775000Y-108000000D03*
%TD*%
%TO.P,D2,2*%
%TO.N,Net-(D2-Pad2)*%
X98225000Y-127000000D03*
D15*
X96190000Y-127000000D03*
D16*
%TO.P,D2,1*%
%TO.N,row1*%
X103810000Y-127000000D03*
D14*
X101775000Y-127000000D03*
%TD*%
%TO.P,D3,1*%
%TO.N,row2*%
X101775000Y-146000000D03*
D16*
X103810000Y-146000000D03*
D15*
%TO.P,D3,2*%
%TO.N,Net-(D3-Pad2)*%
X96190000Y-146000000D03*
D14*
X98225000Y-146000000D03*
%TD*%
%TO.P,D4,1*%
%TO.N,row0*%
X120775000Y-108000000D03*
D16*
X122810000Y-108000000D03*
D15*
%TO.P,D4,2*%
%TO.N,Net-(D4-Pad2)*%
X115190000Y-108000000D03*
D14*
X117225000Y-108000000D03*
%TD*%
%TO.P,D5,1*%
%TO.N,row1*%
X120775000Y-127000000D03*
D16*
X122810000Y-127000000D03*
D15*
%TO.P,D5,2*%
%TO.N,Net-(D5-Pad2)*%
X115190000Y-127000000D03*
D14*
X117225000Y-127000000D03*
%TD*%
%TO.P,D6,2*%
%TO.N,Net-(D6-Pad2)*%
X117225000Y-146000000D03*
D15*
X115190000Y-146000000D03*
D16*
%TO.P,D6,1*%
%TO.N,row2*%
X122810000Y-146000000D03*
D14*
X120775000Y-146000000D03*
%TD*%
%TO.P,D7,2*%
%TO.N,Net-(D7-Pad2)*%
X136225000Y-108000000D03*
D15*
X134190000Y-108000000D03*
D16*
%TO.P,D7,1*%
%TO.N,row0*%
X141810000Y-108000000D03*
D14*
X139775000Y-108000000D03*
%TD*%
%TO.P,D8,1*%
%TO.N,row1*%
X139775000Y-127000000D03*
D16*
X141810000Y-127000000D03*
D15*
%TO.P,D8,2*%
%TO.N,Net-(D8-Pad2)*%
X134190000Y-127000000D03*
D14*
X136225000Y-127000000D03*
%TD*%
%TO.P,D9,1*%
%TO.N,row2*%
X139775000Y-146000000D03*
D16*
X141810000Y-146000000D03*
D15*
%TO.P,D9,2*%
%TO.N,Net-(D9-Pad2)*%
X134190000Y-146000000D03*
D14*
X136225000Y-146000000D03*
%TD*%
D17*
%TO.N,Net-(D1-Pad2)*%
X98225000Y-108000000D02*
X96190000Y-108000000D01*
X98225000Y-108000000D02*
X98225000Y-106056250D01*
X98225000Y-106056250D02*
X100218750Y-104062500D01*
X100218750Y-104062500D02*
X103031250Y-104062500D01*
X103031250Y-95411250D02*
X102540000Y-94920000D01*
X103031250Y-104062500D02*
X103031250Y-95411250D01*
%TO.N,row0*%
X117294250Y-111480750D02*
X120775000Y-108000000D01*
X120775000Y-108000000D02*
X122810000Y-108000000D01*
X139775000Y-108000000D02*
X141810000Y-108000000D01*
X103810000Y-108000000D02*
X101775000Y-108000000D01*
X137343750Y-110156250D02*
X139775000Y-108000000D01*
X124875000Y-110156250D02*
X137343750Y-110156250D01*
X122810000Y-108372500D02*
X124875000Y-110156250D01*
X122810000Y-108000000D02*
X122810000Y-108372500D01*
X113982350Y-111480750D02*
X111263600Y-108762000D01*
X117294250Y-111480750D02*
X113982350Y-111480750D01*
X110501601Y-108000001D02*
X111263600Y-108762000D01*
X103810000Y-108000000D02*
X110501601Y-108000001D01*
%TO.N,Net-(D2-Pad2)*%
X96190000Y-127000000D02*
X98225000Y-127000000D01*
X98225000Y-127000000D02*
X98225000Y-124806250D01*
X98225000Y-124806250D02*
X99375000Y-123656250D01*
X99375000Y-123656250D02*
X103031250Y-123656250D01*
X103031250Y-114411250D02*
X102540000Y-113920000D01*
X103031250Y-123656250D02*
X103031250Y-114411250D01*
%TO.N,row1*%
X101775000Y-127000000D02*
X103810000Y-127000000D01*
X120775000Y-127000000D02*
X122810000Y-127000000D01*
X120775000Y-127000000D02*
X128500000Y-127000000D01*
X128500000Y-127000000D02*
X130781250Y-129281250D01*
X137493750Y-129281250D02*
X139775000Y-127000000D01*
X130781250Y-129281250D02*
X137493750Y-129281250D01*
X139775000Y-127000000D02*
X141810000Y-127000000D01*
X108750000Y-113815600D02*
X111263600Y-111302000D01*
X108750000Y-122250000D02*
X108750000Y-113815600D01*
X104000000Y-127000000D02*
X108750000Y-122250000D01*
X103810000Y-127000000D02*
X104000000Y-127000000D01*
X112350601Y-112389001D02*
X111263600Y-111302000D01*
X113693749Y-117724999D02*
X112350601Y-116381851D01*
X114775001Y-117962501D02*
X114537499Y-117724999D01*
X114537499Y-117724999D02*
X113693749Y-117724999D01*
X114775001Y-119612001D02*
X114775001Y-117962501D01*
X112781250Y-128812500D02*
X112781250Y-121605752D01*
X118962500Y-128812500D02*
X112781250Y-128812500D01*
X112350601Y-116381851D02*
X112350601Y-112389001D01*
X112781250Y-121605752D02*
X114775001Y-119612001D01*
X120775000Y-127000000D02*
X118962500Y-128812500D01*
%TO.N,row2*%
X101775000Y-146000000D02*
X103810000Y-146000000D01*
X106093750Y-146000000D02*
X108500000Y-148406250D01*
X118368750Y-148406250D02*
X120775000Y-146000000D01*
X108500000Y-148406250D02*
X118368750Y-148406250D01*
X122810000Y-146000000D02*
X122810000Y-145877500D01*
X122687500Y-146000000D02*
X120775000Y-146000000D01*
X122810000Y-145877500D02*
X122687500Y-146000000D01*
X139775000Y-146000000D02*
X141810000Y-146000000D01*
X124968750Y-148312500D02*
X137462500Y-148312500D01*
X137462500Y-148312500D02*
X139775000Y-146000000D01*
X122810000Y-146153750D02*
X124968750Y-148312500D01*
X122810000Y-146000000D02*
X122810000Y-146153750D01*
X103810000Y-146000000D02*
X106093750Y-146000000D01*
X109406250Y-115699350D02*
X111263600Y-113842000D01*
X109406250Y-143437500D02*
X109406250Y-115699350D01*
X106843750Y-146000000D02*
X109406250Y-143437500D01*
X106093750Y-146000000D02*
X106843750Y-146000000D01*
%TO.N,Net-(D3-Pad2)*%
X102540000Y-141685000D02*
X98225000Y-146000000D01*
X102540000Y-132920000D02*
X102540000Y-141685000D01*
X98225000Y-146000000D02*
X96190000Y-146000000D01*
%TO.N,Net-(D4-Pad2)*%
X117225000Y-108000000D02*
X115190000Y-108000000D01*
X122156250Y-95536250D02*
X121540000Y-94920000D01*
X117225000Y-107587500D02*
X122156250Y-102656250D01*
X122156250Y-102656250D02*
X122156250Y-95536250D01*
X117225000Y-108000000D02*
X117225000Y-107587500D01*
%TO.N,Net-(D5-Pad2)*%
X117225000Y-127000000D02*
X115190000Y-127000000D01*
X117225000Y-127000000D02*
X117225000Y-125400000D01*
X117225000Y-125400000D02*
X119437500Y-123187500D01*
X119437500Y-123187500D02*
X122250000Y-123187500D01*
X122250000Y-114630000D02*
X121540000Y-113920000D01*
X122250000Y-123187500D02*
X122250000Y-114630000D01*
%TO.N,Net-(D6-Pad2)*%
X115190000Y-146000000D02*
X117225000Y-146000000D01*
X121968750Y-133348750D02*
X121540000Y-132920000D01*
X117225000Y-146000000D02*
X117225000Y-145743750D01*
X117225000Y-145743750D02*
X121687500Y-141281250D01*
X121687500Y-133067500D02*
X121540000Y-132920000D01*
X121687500Y-141281250D02*
X121687500Y-133067500D01*
%TO.N,Net-(D7-Pad2)*%
X134190000Y-108000000D02*
X136225000Y-108000000D01*
X136225000Y-108000000D02*
X136225000Y-106493750D01*
X136225000Y-106493750D02*
X137812500Y-104906250D01*
X137812500Y-104906250D02*
X139781250Y-104906250D01*
X139781250Y-104906250D02*
X141375000Y-103312500D01*
X141375000Y-95755000D02*
X140540000Y-94920000D01*
X141375000Y-103312500D02*
X141375000Y-95755000D01*
%TO.N,Net-(D8-Pad2)*%
X136225000Y-127000000D02*
X134190000Y-127000000D01*
X136225000Y-127000000D02*
X136225000Y-125337500D01*
X136225000Y-125337500D02*
X138000000Y-123562500D01*
X138000000Y-123562500D02*
X140812500Y-123562500D01*
X140812500Y-114192500D02*
X140540000Y-113920000D01*
X140812500Y-123562500D02*
X140812500Y-114192500D01*
%TO.N,Net-(D9-Pad2)*%
X134190000Y-146000000D02*
X136225000Y-146000000D01*
X136225000Y-146000000D02*
X136375000Y-146000000D01*
X140540000Y-141835000D02*
X140540000Y-132920000D01*
X136375000Y-146000000D02*
X140540000Y-141835000D01*
%TD*%
M02*
