%TF.GenerationSoftware,KiCad,Pcbnew,5.1.6-1.fc32*%
%TF.CreationDate,2020-07-08T21:06:17-05:00*%
%TF.ProjectId,source_pad,736f7572-6365-45f7-9061-642e6b696361,rev?*%
%TF.SameCoordinates,Original*%
%TF.FileFunction,Legend,Bot*%
%TF.FilePolarity,Positive*%
%FSLAX46Y46*%
G04 Gerber Fmt 4.6, Leading zero omitted, Abs format (unit mm)*
G04 Created by KiCad (PCBNEW 5.1.6-1.fc32) date 2020-07-08 21:06:17*
%MOMM*%
%LPD*%
G01*
G04 APERTURE LIST*
%ADD10C,0.150000*%
%ADD11C,0.120000*%
%ADD12C,0.125000*%
%ADD13C,0.800000*%
%ADD14C,4.500000*%
%ADD15O,2.600000X2.100000*%
%ADD16C,2.000000*%
%ADD17C,4.100000*%
%ADD18C,1.497000*%
%ADD19R,1.497000X1.497000*%
G04 APERTURE END LIST*
D10*
%TO.C,U1*%
X119025000Y-87600000D02*
X118725000Y-87600000D01*
X119125000Y-87450000D02*
X118625000Y-87450000D01*
X119225000Y-87300000D02*
X118525000Y-87300000D01*
X118875000Y-87800000D02*
X119375000Y-87150000D01*
X118375000Y-87150000D02*
X118875000Y-87800000D01*
X119375000Y-87150000D02*
X118375000Y-87150000D01*
X115125000Y-86800000D02*
X122625000Y-86800000D01*
X115125000Y-88100000D02*
X115125000Y-86800000D01*
X122625000Y-88100000D02*
X115125000Y-88100000D01*
X122625000Y-86800000D02*
X122625000Y-88100000D01*
X127775000Y-89700000D02*
X127775000Y-90700000D01*
X109975000Y-89700000D02*
X109975000Y-90700000D01*
X127775000Y-89700000D02*
X126775000Y-89700000D01*
X109975000Y-89700000D02*
X110925000Y-89700000D01*
X127775000Y-121700000D02*
X127775000Y-122750000D01*
X109975000Y-121750000D02*
X109975000Y-122750000D01*
X127775000Y-122750000D02*
X126775000Y-122750000D01*
X109975000Y-122750000D02*
X110985000Y-122750000D01*
D11*
X121371428Y-89389285D02*
X121371428Y-88639285D01*
X121121428Y-89175000D01*
X120871428Y-88639285D01*
X120871428Y-89389285D01*
X120514285Y-89389285D02*
X120514285Y-88889285D01*
X120514285Y-88639285D02*
X120550000Y-88675000D01*
X120514285Y-88710714D01*
X120478571Y-88675000D01*
X120514285Y-88639285D01*
X120514285Y-88710714D01*
X119835714Y-89353571D02*
X119907142Y-89389285D01*
X120050000Y-89389285D01*
X120121428Y-89353571D01*
X120157142Y-89317857D01*
X120192857Y-89246428D01*
X120192857Y-89032142D01*
X120157142Y-88960714D01*
X120121428Y-88925000D01*
X120050000Y-88889285D01*
X119907142Y-88889285D01*
X119835714Y-88925000D01*
X119514285Y-89389285D02*
X119514285Y-88889285D01*
X119514285Y-89032142D02*
X119478571Y-88960714D01*
X119442857Y-88925000D01*
X119371428Y-88889285D01*
X119300000Y-88889285D01*
X118942857Y-89389285D02*
X119014285Y-89353571D01*
X119050000Y-89317857D01*
X119085714Y-89246428D01*
X119085714Y-89032142D01*
X119050000Y-88960714D01*
X119014285Y-88925000D01*
X118942857Y-88889285D01*
X118835714Y-88889285D01*
X118764285Y-88925000D01*
X118728571Y-88960714D01*
X118692857Y-89032142D01*
X118692857Y-89246428D01*
X118728571Y-89317857D01*
X118764285Y-89353571D01*
X118835714Y-89389285D01*
X118942857Y-89389285D01*
X118371428Y-88639285D02*
X118371428Y-89246428D01*
X118335714Y-89317857D01*
X118300000Y-89353571D01*
X118228571Y-89389285D01*
X118085714Y-89389285D01*
X118014285Y-89353571D01*
X117978571Y-89317857D01*
X117942857Y-89246428D01*
X117942857Y-88639285D01*
X117621428Y-89353571D02*
X117514285Y-89389285D01*
X117335714Y-89389285D01*
X117264285Y-89353571D01*
X117228571Y-89317857D01*
X117192857Y-89246428D01*
X117192857Y-89175000D01*
X117228571Y-89103571D01*
X117264285Y-89067857D01*
X117335714Y-89032142D01*
X117478571Y-88996428D01*
X117550000Y-88960714D01*
X117585714Y-88925000D01*
X117621428Y-88853571D01*
X117621428Y-88782142D01*
X117585714Y-88710714D01*
X117550000Y-88675000D01*
X117478571Y-88639285D01*
X117300000Y-88639285D01*
X117192857Y-88675000D01*
X116621428Y-88996428D02*
X116514285Y-89032142D01*
X116478571Y-89067857D01*
X116442857Y-89139285D01*
X116442857Y-89246428D01*
X116478571Y-89317857D01*
X116514285Y-89353571D01*
X116585714Y-89389285D01*
X116871428Y-89389285D01*
X116871428Y-88639285D01*
X116621428Y-88639285D01*
X116550000Y-88675000D01*
X116514285Y-88710714D01*
X116478571Y-88782142D01*
X116478571Y-88853571D01*
X116514285Y-88925000D01*
X116550000Y-88960714D01*
X116621428Y-88996428D01*
X116871428Y-88996428D01*
D12*
X107328809Y-118953571D02*
X107424523Y-118917857D01*
X107456428Y-118882142D01*
X107488333Y-118810714D01*
X107488333Y-118703571D01*
X107456428Y-118632142D01*
X107424523Y-118596428D01*
X107360714Y-118560714D01*
X107105476Y-118560714D01*
X107105476Y-119310714D01*
X107328809Y-119310714D01*
X107392619Y-119275000D01*
X107424523Y-119239285D01*
X107456428Y-119167857D01*
X107456428Y-119096428D01*
X107424523Y-119025000D01*
X107392619Y-118989285D01*
X107328809Y-118953571D01*
X107105476Y-118953571D01*
X108062619Y-119060714D02*
X108062619Y-118560714D01*
X107903095Y-119346428D02*
X107743571Y-118810714D01*
X108158333Y-118810714D01*
X108892142Y-119346428D02*
X108317857Y-118382142D01*
X109211190Y-118989285D02*
X109147380Y-119025000D01*
X109115476Y-119060714D01*
X109083571Y-119132142D01*
X109083571Y-119167857D01*
X109115476Y-119239285D01*
X109147380Y-119275000D01*
X109211190Y-119310714D01*
X109338809Y-119310714D01*
X109402619Y-119275000D01*
X109434523Y-119239285D01*
X109466428Y-119167857D01*
X109466428Y-119132142D01*
X109434523Y-119060714D01*
X109402619Y-119025000D01*
X109338809Y-118989285D01*
X109211190Y-118989285D01*
X109147380Y-118953571D01*
X109115476Y-118917857D01*
X109083571Y-118846428D01*
X109083571Y-118703571D01*
X109115476Y-118632142D01*
X109147380Y-118596428D01*
X109211190Y-118560714D01*
X109338809Y-118560714D01*
X109402619Y-118596428D01*
X109434523Y-118632142D01*
X109466428Y-118703571D01*
X109466428Y-118846428D01*
X109434523Y-118917857D01*
X109402619Y-118953571D01*
X109338809Y-118989285D01*
X106001428Y-95760714D02*
X106001428Y-96510714D01*
X106160952Y-96510714D01*
X106256666Y-96475000D01*
X106320476Y-96403571D01*
X106352380Y-96332142D01*
X106384285Y-96189285D01*
X106384285Y-96082142D01*
X106352380Y-95939285D01*
X106320476Y-95867857D01*
X106256666Y-95796428D01*
X106160952Y-95760714D01*
X106001428Y-95760714D01*
X106639523Y-96439285D02*
X106671428Y-96475000D01*
X106735238Y-96510714D01*
X106894761Y-96510714D01*
X106958571Y-96475000D01*
X106990476Y-96439285D01*
X107022380Y-96367857D01*
X107022380Y-96296428D01*
X106990476Y-96189285D01*
X106607619Y-95760714D01*
X107022380Y-95760714D01*
X107788095Y-96546428D02*
X107213809Y-95582142D01*
X108394285Y-95760714D02*
X108170952Y-96117857D01*
X108011428Y-95760714D02*
X108011428Y-96510714D01*
X108266666Y-96510714D01*
X108330476Y-96475000D01*
X108362380Y-96439285D01*
X108394285Y-96367857D01*
X108394285Y-96260714D01*
X108362380Y-96189285D01*
X108330476Y-96153571D01*
X108266666Y-96117857D01*
X108011428Y-96117857D01*
X108617619Y-96510714D02*
X109064285Y-95760714D01*
X109064285Y-96510714D02*
X108617619Y-95760714D01*
X109670476Y-95760714D02*
X109287619Y-95760714D01*
X109479047Y-95760714D02*
X109479047Y-96510714D01*
X109415238Y-96403571D01*
X109351428Y-96332142D01*
X109287619Y-96296428D01*
X107328809Y-121453571D02*
X107424523Y-121417857D01*
X107456428Y-121382142D01*
X107488333Y-121310714D01*
X107488333Y-121203571D01*
X107456428Y-121132142D01*
X107424523Y-121096428D01*
X107360714Y-121060714D01*
X107105476Y-121060714D01*
X107105476Y-121810714D01*
X107328809Y-121810714D01*
X107392619Y-121775000D01*
X107424523Y-121739285D01*
X107456428Y-121667857D01*
X107456428Y-121596428D01*
X107424523Y-121525000D01*
X107392619Y-121489285D01*
X107328809Y-121453571D01*
X107105476Y-121453571D01*
X108094523Y-121810714D02*
X107775476Y-121810714D01*
X107743571Y-121453571D01*
X107775476Y-121489285D01*
X107839285Y-121525000D01*
X107998809Y-121525000D01*
X108062619Y-121489285D01*
X108094523Y-121453571D01*
X108126428Y-121382142D01*
X108126428Y-121203571D01*
X108094523Y-121132142D01*
X108062619Y-121096428D01*
X107998809Y-121060714D01*
X107839285Y-121060714D01*
X107775476Y-121096428D01*
X107743571Y-121132142D01*
X108892142Y-121846428D02*
X108317857Y-120882142D01*
X109147380Y-121060714D02*
X109275000Y-121060714D01*
X109338809Y-121096428D01*
X109370714Y-121132142D01*
X109434523Y-121239285D01*
X109466428Y-121382142D01*
X109466428Y-121667857D01*
X109434523Y-121739285D01*
X109402619Y-121775000D01*
X109338809Y-121810714D01*
X109211190Y-121810714D01*
X109147380Y-121775000D01*
X109115476Y-121739285D01*
X109083571Y-121667857D01*
X109083571Y-121489285D01*
X109115476Y-121417857D01*
X109147380Y-121382142D01*
X109211190Y-121346428D01*
X109338809Y-121346428D01*
X109402619Y-121382142D01*
X109434523Y-121417857D01*
X109466428Y-121489285D01*
X107488333Y-110982142D02*
X107456428Y-110946428D01*
X107360714Y-110910714D01*
X107296904Y-110910714D01*
X107201190Y-110946428D01*
X107137380Y-111017857D01*
X107105476Y-111089285D01*
X107073571Y-111232142D01*
X107073571Y-111339285D01*
X107105476Y-111482142D01*
X107137380Y-111553571D01*
X107201190Y-111625000D01*
X107296904Y-111660714D01*
X107360714Y-111660714D01*
X107456428Y-111625000D01*
X107488333Y-111589285D01*
X108062619Y-111660714D02*
X107935000Y-111660714D01*
X107871190Y-111625000D01*
X107839285Y-111589285D01*
X107775476Y-111482142D01*
X107743571Y-111339285D01*
X107743571Y-111053571D01*
X107775476Y-110982142D01*
X107807380Y-110946428D01*
X107871190Y-110910714D01*
X107998809Y-110910714D01*
X108062619Y-110946428D01*
X108094523Y-110982142D01*
X108126428Y-111053571D01*
X108126428Y-111232142D01*
X108094523Y-111303571D01*
X108062619Y-111339285D01*
X107998809Y-111375000D01*
X107871190Y-111375000D01*
X107807380Y-111339285D01*
X107775476Y-111303571D01*
X107743571Y-111232142D01*
X108892142Y-111696428D02*
X108317857Y-110732142D01*
X109434523Y-111660714D02*
X109115476Y-111660714D01*
X109083571Y-111303571D01*
X109115476Y-111339285D01*
X109179285Y-111375000D01*
X109338809Y-111375000D01*
X109402619Y-111339285D01*
X109434523Y-111303571D01*
X109466428Y-111232142D01*
X109466428Y-111053571D01*
X109434523Y-110982142D01*
X109402619Y-110946428D01*
X109338809Y-110910714D01*
X109179285Y-110910714D01*
X109115476Y-110946428D01*
X109083571Y-110982142D01*
X104647380Y-105996428D02*
X104743095Y-105960714D01*
X104902619Y-105960714D01*
X104966428Y-105996428D01*
X104998333Y-106032142D01*
X105030238Y-106103571D01*
X105030238Y-106175000D01*
X104998333Y-106246428D01*
X104966428Y-106282142D01*
X104902619Y-106317857D01*
X104775000Y-106353571D01*
X104711190Y-106389285D01*
X104679285Y-106425000D01*
X104647380Y-106496428D01*
X104647380Y-106567857D01*
X104679285Y-106639285D01*
X104711190Y-106675000D01*
X104775000Y-106710714D01*
X104934523Y-106710714D01*
X105030238Y-106675000D01*
X105700238Y-106032142D02*
X105668333Y-105996428D01*
X105572619Y-105960714D01*
X105508809Y-105960714D01*
X105413095Y-105996428D01*
X105349285Y-106067857D01*
X105317380Y-106139285D01*
X105285476Y-106282142D01*
X105285476Y-106389285D01*
X105317380Y-106532142D01*
X105349285Y-106603571D01*
X105413095Y-106675000D01*
X105508809Y-106710714D01*
X105572619Y-106710714D01*
X105668333Y-106675000D01*
X105700238Y-106639285D01*
X106306428Y-105960714D02*
X105987380Y-105960714D01*
X105987380Y-106710714D01*
X107008333Y-106746428D02*
X106434047Y-105782142D01*
X107231666Y-105960714D02*
X107231666Y-106710714D01*
X107391190Y-106710714D01*
X107486904Y-106675000D01*
X107550714Y-106603571D01*
X107582619Y-106532142D01*
X107614523Y-106389285D01*
X107614523Y-106282142D01*
X107582619Y-106139285D01*
X107550714Y-106067857D01*
X107486904Y-105996428D01*
X107391190Y-105960714D01*
X107231666Y-105960714D01*
X108029285Y-106710714D02*
X108093095Y-106710714D01*
X108156904Y-106675000D01*
X108188809Y-106639285D01*
X108220714Y-106567857D01*
X108252619Y-106425000D01*
X108252619Y-106246428D01*
X108220714Y-106103571D01*
X108188809Y-106032142D01*
X108156904Y-105996428D01*
X108093095Y-105960714D01*
X108029285Y-105960714D01*
X107965476Y-105996428D01*
X107933571Y-106032142D01*
X107901666Y-106103571D01*
X107869761Y-106246428D01*
X107869761Y-106425000D01*
X107901666Y-106567857D01*
X107933571Y-106639285D01*
X107965476Y-106675000D01*
X108029285Y-106710714D01*
X109018333Y-106746428D02*
X108444047Y-105782142D01*
X109177857Y-106710714D02*
X109592619Y-106710714D01*
X109369285Y-106425000D01*
X109465000Y-106425000D01*
X109528809Y-106389285D01*
X109560714Y-106353571D01*
X109592619Y-106282142D01*
X109592619Y-106103571D01*
X109560714Y-106032142D01*
X109528809Y-105996428D01*
X109465000Y-105960714D01*
X109273571Y-105960714D01*
X109209761Y-105996428D01*
X109177857Y-106032142D01*
X104631428Y-103496428D02*
X104727142Y-103460714D01*
X104886666Y-103460714D01*
X104950476Y-103496428D01*
X104982380Y-103532142D01*
X105014285Y-103603571D01*
X105014285Y-103675000D01*
X104982380Y-103746428D01*
X104950476Y-103782142D01*
X104886666Y-103817857D01*
X104759047Y-103853571D01*
X104695238Y-103889285D01*
X104663333Y-103925000D01*
X104631428Y-103996428D01*
X104631428Y-104067857D01*
X104663333Y-104139285D01*
X104695238Y-104175000D01*
X104759047Y-104210714D01*
X104918571Y-104210714D01*
X105014285Y-104175000D01*
X105301428Y-103460714D02*
X105301428Y-104210714D01*
X105460952Y-104210714D01*
X105556666Y-104175000D01*
X105620476Y-104103571D01*
X105652380Y-104032142D01*
X105684285Y-103889285D01*
X105684285Y-103782142D01*
X105652380Y-103639285D01*
X105620476Y-103567857D01*
X105556666Y-103496428D01*
X105460952Y-103460714D01*
X105301428Y-103460714D01*
X105939523Y-103675000D02*
X106258571Y-103675000D01*
X105875714Y-103460714D02*
X106099047Y-104210714D01*
X106322380Y-103460714D01*
X107024285Y-104246428D02*
X106450000Y-103282142D01*
X107247619Y-103460714D02*
X107247619Y-104210714D01*
X107407142Y-104210714D01*
X107502857Y-104175000D01*
X107566666Y-104103571D01*
X107598571Y-104032142D01*
X107630476Y-103889285D01*
X107630476Y-103782142D01*
X107598571Y-103639285D01*
X107566666Y-103567857D01*
X107502857Y-103496428D01*
X107407142Y-103460714D01*
X107247619Y-103460714D01*
X108268571Y-103460714D02*
X107885714Y-103460714D01*
X108077142Y-103460714D02*
X108077142Y-104210714D01*
X108013333Y-104103571D01*
X107949523Y-104032142D01*
X107885714Y-103996428D01*
X109034285Y-104246428D02*
X108460000Y-103282142D01*
X109225714Y-104139285D02*
X109257619Y-104175000D01*
X109321428Y-104210714D01*
X109480952Y-104210714D01*
X109544761Y-104175000D01*
X109576666Y-104139285D01*
X109608571Y-104067857D01*
X109608571Y-103996428D01*
X109576666Y-103889285D01*
X109193809Y-103460714D01*
X109608571Y-103460714D01*
X107105476Y-108360714D02*
X107105476Y-109110714D01*
X107265000Y-109110714D01*
X107360714Y-109075000D01*
X107424523Y-109003571D01*
X107456428Y-108932142D01*
X107488333Y-108789285D01*
X107488333Y-108682142D01*
X107456428Y-108539285D01*
X107424523Y-108467857D01*
X107360714Y-108396428D01*
X107265000Y-108360714D01*
X107105476Y-108360714D01*
X108062619Y-108860714D02*
X108062619Y-108360714D01*
X107903095Y-109146428D02*
X107743571Y-108610714D01*
X108158333Y-108610714D01*
X108892142Y-109146428D02*
X108317857Y-108182142D01*
X109402619Y-108860714D02*
X109402619Y-108360714D01*
X109243095Y-109146428D02*
X109083571Y-108610714D01*
X109498333Y-108610714D01*
X106081190Y-93210714D02*
X106081190Y-93960714D01*
X106240714Y-93960714D01*
X106336428Y-93925000D01*
X106400238Y-93853571D01*
X106432142Y-93782142D01*
X106464047Y-93639285D01*
X106464047Y-93532142D01*
X106432142Y-93389285D01*
X106400238Y-93317857D01*
X106336428Y-93246428D01*
X106240714Y-93210714D01*
X106081190Y-93210714D01*
X106687380Y-93960714D02*
X107102142Y-93960714D01*
X106878809Y-93675000D01*
X106974523Y-93675000D01*
X107038333Y-93639285D01*
X107070238Y-93603571D01*
X107102142Y-93532142D01*
X107102142Y-93353571D01*
X107070238Y-93282142D01*
X107038333Y-93246428D01*
X106974523Y-93210714D01*
X106783095Y-93210714D01*
X106719285Y-93246428D01*
X106687380Y-93282142D01*
X107867857Y-93996428D02*
X107293571Y-93032142D01*
X107995476Y-93960714D02*
X108378333Y-93960714D01*
X108186904Y-93210714D02*
X108186904Y-93960714D01*
X108537857Y-93960714D02*
X108984523Y-93210714D01*
X108984523Y-93960714D02*
X108537857Y-93210714D01*
X109367380Y-93960714D02*
X109431190Y-93960714D01*
X109495000Y-93925000D01*
X109526904Y-93889285D01*
X109558809Y-93817857D01*
X109590714Y-93675000D01*
X109590714Y-93496428D01*
X109558809Y-93353571D01*
X109526904Y-93282142D01*
X109495000Y-93246428D01*
X109431190Y-93210714D01*
X109367380Y-93210714D01*
X109303571Y-93246428D01*
X109271666Y-93282142D01*
X109239761Y-93353571D01*
X109207857Y-93496428D01*
X109207857Y-93675000D01*
X109239761Y-93817857D01*
X109271666Y-93889285D01*
X109303571Y-93925000D01*
X109367380Y-93960714D01*
X108259523Y-101525000D02*
X108195714Y-101560714D01*
X108100000Y-101560714D01*
X108004285Y-101525000D01*
X107940476Y-101453571D01*
X107908571Y-101382142D01*
X107876666Y-101239285D01*
X107876666Y-101132142D01*
X107908571Y-100989285D01*
X107940476Y-100917857D01*
X108004285Y-100846428D01*
X108100000Y-100810714D01*
X108163809Y-100810714D01*
X108259523Y-100846428D01*
X108291428Y-100882142D01*
X108291428Y-101132142D01*
X108163809Y-101132142D01*
X108578571Y-100810714D02*
X108578571Y-101560714D01*
X108961428Y-100810714D01*
X108961428Y-101560714D01*
X109280476Y-100810714D02*
X109280476Y-101560714D01*
X109440000Y-101560714D01*
X109535714Y-101525000D01*
X109599523Y-101453571D01*
X109631428Y-101382142D01*
X109663333Y-101239285D01*
X109663333Y-101132142D01*
X109631428Y-100989285D01*
X109599523Y-100917857D01*
X109535714Y-100846428D01*
X109440000Y-100810714D01*
X109280476Y-100810714D01*
X108259523Y-99075000D02*
X108195714Y-99110714D01*
X108100000Y-99110714D01*
X108004285Y-99075000D01*
X107940476Y-99003571D01*
X107908571Y-98932142D01*
X107876666Y-98789285D01*
X107876666Y-98682142D01*
X107908571Y-98539285D01*
X107940476Y-98467857D01*
X108004285Y-98396428D01*
X108100000Y-98360714D01*
X108163809Y-98360714D01*
X108259523Y-98396428D01*
X108291428Y-98432142D01*
X108291428Y-98682142D01*
X108163809Y-98682142D01*
X108578571Y-98360714D02*
X108578571Y-99110714D01*
X108961428Y-98360714D01*
X108961428Y-99110714D01*
X109280476Y-98360714D02*
X109280476Y-99110714D01*
X109440000Y-99110714D01*
X109535714Y-99075000D01*
X109599523Y-99003571D01*
X109631428Y-98932142D01*
X109663333Y-98789285D01*
X109663333Y-98682142D01*
X109631428Y-98539285D01*
X109599523Y-98467857D01*
X109535714Y-98396428D01*
X109440000Y-98360714D01*
X109280476Y-98360714D01*
X107105476Y-113460714D02*
X107105476Y-114210714D01*
X107265000Y-114210714D01*
X107360714Y-114175000D01*
X107424523Y-114103571D01*
X107456428Y-114032142D01*
X107488333Y-113889285D01*
X107488333Y-113782142D01*
X107456428Y-113639285D01*
X107424523Y-113567857D01*
X107360714Y-113496428D01*
X107265000Y-113460714D01*
X107105476Y-113460714D01*
X107711666Y-114210714D02*
X108158333Y-114210714D01*
X107871190Y-113460714D01*
X108892142Y-114246428D02*
X108317857Y-113282142D01*
X109402619Y-114210714D02*
X109275000Y-114210714D01*
X109211190Y-114175000D01*
X109179285Y-114139285D01*
X109115476Y-114032142D01*
X109083571Y-113889285D01*
X109083571Y-113603571D01*
X109115476Y-113532142D01*
X109147380Y-113496428D01*
X109211190Y-113460714D01*
X109338809Y-113460714D01*
X109402619Y-113496428D01*
X109434523Y-113532142D01*
X109466428Y-113603571D01*
X109466428Y-113782142D01*
X109434523Y-113853571D01*
X109402619Y-113889285D01*
X109338809Y-113925000D01*
X109211190Y-113925000D01*
X109147380Y-113889285D01*
X109115476Y-113853571D01*
X109083571Y-113782142D01*
X107137380Y-116403571D02*
X107360714Y-116403571D01*
X107456428Y-116010714D02*
X107137380Y-116010714D01*
X107137380Y-116760714D01*
X107456428Y-116760714D01*
X108030714Y-116760714D02*
X107903095Y-116760714D01*
X107839285Y-116725000D01*
X107807380Y-116689285D01*
X107743571Y-116582142D01*
X107711666Y-116439285D01*
X107711666Y-116153571D01*
X107743571Y-116082142D01*
X107775476Y-116046428D01*
X107839285Y-116010714D01*
X107966904Y-116010714D01*
X108030714Y-116046428D01*
X108062619Y-116082142D01*
X108094523Y-116153571D01*
X108094523Y-116332142D01*
X108062619Y-116403571D01*
X108030714Y-116439285D01*
X107966904Y-116475000D01*
X107839285Y-116475000D01*
X107775476Y-116439285D01*
X107743571Y-116403571D01*
X107711666Y-116332142D01*
X108860238Y-116796428D02*
X108285952Y-115832142D01*
X109019761Y-116760714D02*
X109466428Y-116760714D01*
X109179285Y-116010714D01*
X128587380Y-118610714D02*
X128204523Y-118610714D01*
X128395952Y-118610714D02*
X128395952Y-119360714D01*
X128332142Y-119253571D01*
X128268333Y-119182142D01*
X128204523Y-119146428D01*
X129161666Y-119360714D02*
X129034047Y-119360714D01*
X128970238Y-119325000D01*
X128938333Y-119289285D01*
X128874523Y-119182142D01*
X128842619Y-119039285D01*
X128842619Y-118753571D01*
X128874523Y-118682142D01*
X128906428Y-118646428D01*
X128970238Y-118610714D01*
X129097857Y-118610714D01*
X129161666Y-118646428D01*
X129193571Y-118682142D01*
X129225476Y-118753571D01*
X129225476Y-118932142D01*
X129193571Y-119003571D01*
X129161666Y-119039285D01*
X129097857Y-119075000D01*
X128970238Y-119075000D01*
X128906428Y-119039285D01*
X128874523Y-119003571D01*
X128842619Y-118932142D01*
X129991190Y-119396428D02*
X129416904Y-118432142D01*
X130437857Y-119003571D02*
X130533571Y-118967857D01*
X130565476Y-118932142D01*
X130597380Y-118860714D01*
X130597380Y-118753571D01*
X130565476Y-118682142D01*
X130533571Y-118646428D01*
X130469761Y-118610714D01*
X130214523Y-118610714D01*
X130214523Y-119360714D01*
X130437857Y-119360714D01*
X130501666Y-119325000D01*
X130533571Y-119289285D01*
X130565476Y-119217857D01*
X130565476Y-119146428D01*
X130533571Y-119075000D01*
X130501666Y-119039285D01*
X130437857Y-119003571D01*
X130214523Y-119003571D01*
X130852619Y-119289285D02*
X130884523Y-119325000D01*
X130948333Y-119360714D01*
X131107857Y-119360714D01*
X131171666Y-119325000D01*
X131203571Y-119289285D01*
X131235476Y-119217857D01*
X131235476Y-119146428D01*
X131203571Y-119039285D01*
X130820714Y-118610714D01*
X131235476Y-118610714D01*
X128587380Y-121110714D02*
X128204523Y-121110714D01*
X128395952Y-121110714D02*
X128395952Y-121860714D01*
X128332142Y-121753571D01*
X128268333Y-121682142D01*
X128204523Y-121646428D01*
X129002142Y-121860714D02*
X129065952Y-121860714D01*
X129129761Y-121825000D01*
X129161666Y-121789285D01*
X129193571Y-121717857D01*
X129225476Y-121575000D01*
X129225476Y-121396428D01*
X129193571Y-121253571D01*
X129161666Y-121182142D01*
X129129761Y-121146428D01*
X129065952Y-121110714D01*
X129002142Y-121110714D01*
X128938333Y-121146428D01*
X128906428Y-121182142D01*
X128874523Y-121253571D01*
X128842619Y-121396428D01*
X128842619Y-121575000D01*
X128874523Y-121717857D01*
X128906428Y-121789285D01*
X128938333Y-121825000D01*
X129002142Y-121860714D01*
X129991190Y-121896428D02*
X129416904Y-120932142D01*
X130437857Y-121503571D02*
X130533571Y-121467857D01*
X130565476Y-121432142D01*
X130597380Y-121360714D01*
X130597380Y-121253571D01*
X130565476Y-121182142D01*
X130533571Y-121146428D01*
X130469761Y-121110714D01*
X130214523Y-121110714D01*
X130214523Y-121860714D01*
X130437857Y-121860714D01*
X130501666Y-121825000D01*
X130533571Y-121789285D01*
X130565476Y-121717857D01*
X130565476Y-121646428D01*
X130533571Y-121575000D01*
X130501666Y-121539285D01*
X130437857Y-121503571D01*
X130214523Y-121503571D01*
X131171666Y-121860714D02*
X131044047Y-121860714D01*
X130980238Y-121825000D01*
X130948333Y-121789285D01*
X130884523Y-121682142D01*
X130852619Y-121539285D01*
X130852619Y-121253571D01*
X130884523Y-121182142D01*
X130916428Y-121146428D01*
X130980238Y-121110714D01*
X131107857Y-121110714D01*
X131171666Y-121146428D01*
X131203571Y-121182142D01*
X131235476Y-121253571D01*
X131235476Y-121432142D01*
X131203571Y-121503571D01*
X131171666Y-121539285D01*
X131107857Y-121575000D01*
X130980238Y-121575000D01*
X130916428Y-121539285D01*
X130884523Y-121503571D01*
X130852619Y-121432142D01*
X128587380Y-116060714D02*
X128204523Y-116060714D01*
X128395952Y-116060714D02*
X128395952Y-116810714D01*
X128332142Y-116703571D01*
X128268333Y-116632142D01*
X128204523Y-116596428D01*
X129161666Y-116560714D02*
X129161666Y-116060714D01*
X129002142Y-116846428D02*
X128842619Y-116310714D01*
X129257380Y-116310714D01*
X129991190Y-116846428D02*
X129416904Y-115882142D01*
X130437857Y-116453571D02*
X130533571Y-116417857D01*
X130565476Y-116382142D01*
X130597380Y-116310714D01*
X130597380Y-116203571D01*
X130565476Y-116132142D01*
X130533571Y-116096428D01*
X130469761Y-116060714D01*
X130214523Y-116060714D01*
X130214523Y-116810714D01*
X130437857Y-116810714D01*
X130501666Y-116775000D01*
X130533571Y-116739285D01*
X130565476Y-116667857D01*
X130565476Y-116596428D01*
X130533571Y-116525000D01*
X130501666Y-116489285D01*
X130437857Y-116453571D01*
X130214523Y-116453571D01*
X130820714Y-116810714D02*
X131235476Y-116810714D01*
X131012142Y-116525000D01*
X131107857Y-116525000D01*
X131171666Y-116489285D01*
X131203571Y-116453571D01*
X131235476Y-116382142D01*
X131235476Y-116203571D01*
X131203571Y-116132142D01*
X131171666Y-116096428D01*
X131107857Y-116060714D01*
X130916428Y-116060714D01*
X130852619Y-116096428D01*
X130820714Y-116132142D01*
X128587380Y-113510714D02*
X128204523Y-113510714D01*
X128395952Y-113510714D02*
X128395952Y-114260714D01*
X128332142Y-114153571D01*
X128268333Y-114082142D01*
X128204523Y-114046428D01*
X129193571Y-114260714D02*
X128874523Y-114260714D01*
X128842619Y-113903571D01*
X128874523Y-113939285D01*
X128938333Y-113975000D01*
X129097857Y-113975000D01*
X129161666Y-113939285D01*
X129193571Y-113903571D01*
X129225476Y-113832142D01*
X129225476Y-113653571D01*
X129193571Y-113582142D01*
X129161666Y-113546428D01*
X129097857Y-113510714D01*
X128938333Y-113510714D01*
X128874523Y-113546428D01*
X128842619Y-113582142D01*
X129991190Y-114296428D02*
X129416904Y-113332142D01*
X130437857Y-113903571D02*
X130533571Y-113867857D01*
X130565476Y-113832142D01*
X130597380Y-113760714D01*
X130597380Y-113653571D01*
X130565476Y-113582142D01*
X130533571Y-113546428D01*
X130469761Y-113510714D01*
X130214523Y-113510714D01*
X130214523Y-114260714D01*
X130437857Y-114260714D01*
X130501666Y-114225000D01*
X130533571Y-114189285D01*
X130565476Y-114117857D01*
X130565476Y-114046428D01*
X130533571Y-113975000D01*
X130501666Y-113939285D01*
X130437857Y-113903571D01*
X130214523Y-113903571D01*
X131235476Y-113510714D02*
X130852619Y-113510714D01*
X131044047Y-113510714D02*
X131044047Y-114260714D01*
X130980238Y-114153571D01*
X130916428Y-114082142D01*
X130852619Y-114046428D01*
X128284285Y-111175000D02*
X128603333Y-111175000D01*
X128220476Y-110960714D02*
X128443809Y-111710714D01*
X128667142Y-110960714D01*
X129018095Y-111710714D02*
X129081904Y-111710714D01*
X129145714Y-111675000D01*
X129177619Y-111639285D01*
X129209523Y-111567857D01*
X129241428Y-111425000D01*
X129241428Y-111246428D01*
X129209523Y-111103571D01*
X129177619Y-111032142D01*
X129145714Y-110996428D01*
X129081904Y-110960714D01*
X129018095Y-110960714D01*
X128954285Y-110996428D01*
X128922380Y-111032142D01*
X128890476Y-111103571D01*
X128858571Y-111246428D01*
X128858571Y-111425000D01*
X128890476Y-111567857D01*
X128922380Y-111639285D01*
X128954285Y-111675000D01*
X129018095Y-111710714D01*
X130007142Y-111746428D02*
X129432857Y-110782142D01*
X130453809Y-111353571D02*
X130230476Y-111353571D01*
X130230476Y-110960714D02*
X130230476Y-111710714D01*
X130549523Y-111710714D01*
X130740952Y-111710714D02*
X131187619Y-111710714D01*
X130900476Y-110960714D01*
X128284285Y-108625000D02*
X128603333Y-108625000D01*
X128220476Y-108410714D02*
X128443809Y-109160714D01*
X128667142Y-108410714D01*
X129241428Y-108410714D02*
X128858571Y-108410714D01*
X129050000Y-108410714D02*
X129050000Y-109160714D01*
X128986190Y-109053571D01*
X128922380Y-108982142D01*
X128858571Y-108946428D01*
X130007142Y-109196428D02*
X129432857Y-108232142D01*
X130453809Y-108803571D02*
X130230476Y-108803571D01*
X130230476Y-108410714D02*
X130230476Y-109160714D01*
X130549523Y-109160714D01*
X131091904Y-109160714D02*
X130964285Y-109160714D01*
X130900476Y-109125000D01*
X130868571Y-109089285D01*
X130804761Y-108982142D01*
X130772857Y-108839285D01*
X130772857Y-108553571D01*
X130804761Y-108482142D01*
X130836666Y-108446428D01*
X130900476Y-108410714D01*
X131028095Y-108410714D01*
X131091904Y-108446428D01*
X131123809Y-108482142D01*
X131155714Y-108553571D01*
X131155714Y-108732142D01*
X131123809Y-108803571D01*
X131091904Y-108839285D01*
X131028095Y-108875000D01*
X130900476Y-108875000D01*
X130836666Y-108839285D01*
X130804761Y-108803571D01*
X130772857Y-108732142D01*
X128284285Y-106125000D02*
X128603333Y-106125000D01*
X128220476Y-105910714D02*
X128443809Y-106660714D01*
X128667142Y-105910714D01*
X128858571Y-106589285D02*
X128890476Y-106625000D01*
X128954285Y-106660714D01*
X129113809Y-106660714D01*
X129177619Y-106625000D01*
X129209523Y-106589285D01*
X129241428Y-106517857D01*
X129241428Y-106446428D01*
X129209523Y-106339285D01*
X128826666Y-105910714D01*
X129241428Y-105910714D01*
X130007142Y-106696428D02*
X129432857Y-105732142D01*
X130453809Y-106303571D02*
X130230476Y-106303571D01*
X130230476Y-105910714D02*
X130230476Y-106660714D01*
X130549523Y-106660714D01*
X131123809Y-106660714D02*
X130804761Y-106660714D01*
X130772857Y-106303571D01*
X130804761Y-106339285D01*
X130868571Y-106375000D01*
X131028095Y-106375000D01*
X131091904Y-106339285D01*
X131123809Y-106303571D01*
X131155714Y-106232142D01*
X131155714Y-106053571D01*
X131123809Y-105982142D01*
X131091904Y-105946428D01*
X131028095Y-105910714D01*
X130868571Y-105910714D01*
X130804761Y-105946428D01*
X130772857Y-105982142D01*
X128284285Y-103625000D02*
X128603333Y-103625000D01*
X128220476Y-103410714D02*
X128443809Y-104160714D01*
X128667142Y-103410714D01*
X128826666Y-104160714D02*
X129241428Y-104160714D01*
X129018095Y-103875000D01*
X129113809Y-103875000D01*
X129177619Y-103839285D01*
X129209523Y-103803571D01*
X129241428Y-103732142D01*
X129241428Y-103553571D01*
X129209523Y-103482142D01*
X129177619Y-103446428D01*
X129113809Y-103410714D01*
X128922380Y-103410714D01*
X128858571Y-103446428D01*
X128826666Y-103482142D01*
X130007142Y-104196428D02*
X129432857Y-103232142D01*
X130453809Y-103803571D02*
X130230476Y-103803571D01*
X130230476Y-103410714D02*
X130230476Y-104160714D01*
X130549523Y-104160714D01*
X131091904Y-103910714D02*
X131091904Y-103410714D01*
X130932380Y-104196428D02*
X130772857Y-103660714D01*
X131187619Y-103660714D01*
X128176666Y-101460714D02*
X128400000Y-100710714D01*
X128623333Y-101460714D01*
X129229523Y-100782142D02*
X129197619Y-100746428D01*
X129101904Y-100710714D01*
X129038095Y-100710714D01*
X128942380Y-100746428D01*
X128878571Y-100817857D01*
X128846666Y-100889285D01*
X128814761Y-101032142D01*
X128814761Y-101139285D01*
X128846666Y-101282142D01*
X128878571Y-101353571D01*
X128942380Y-101425000D01*
X129038095Y-101460714D01*
X129101904Y-101460714D01*
X129197619Y-101425000D01*
X129229523Y-101389285D01*
X129899523Y-100782142D02*
X129867619Y-100746428D01*
X129771904Y-100710714D01*
X129708095Y-100710714D01*
X129612380Y-100746428D01*
X129548571Y-100817857D01*
X129516666Y-100889285D01*
X129484761Y-101032142D01*
X129484761Y-101139285D01*
X129516666Y-101282142D01*
X129548571Y-101353571D01*
X129612380Y-101425000D01*
X129708095Y-101460714D01*
X129771904Y-101460714D01*
X129867619Y-101425000D01*
X129899523Y-101389285D01*
X128703095Y-98260714D02*
X128479761Y-98617857D01*
X128320238Y-98260714D02*
X128320238Y-99010714D01*
X128575476Y-99010714D01*
X128639285Y-98975000D01*
X128671190Y-98939285D01*
X128703095Y-98867857D01*
X128703095Y-98760714D01*
X128671190Y-98689285D01*
X128639285Y-98653571D01*
X128575476Y-98617857D01*
X128320238Y-98617857D01*
X128958333Y-98296428D02*
X129054047Y-98260714D01*
X129213571Y-98260714D01*
X129277380Y-98296428D01*
X129309285Y-98332142D01*
X129341190Y-98403571D01*
X129341190Y-98475000D01*
X129309285Y-98546428D01*
X129277380Y-98582142D01*
X129213571Y-98617857D01*
X129085952Y-98653571D01*
X129022142Y-98689285D01*
X128990238Y-98725000D01*
X128958333Y-98796428D01*
X128958333Y-98867857D01*
X128990238Y-98939285D01*
X129022142Y-98975000D01*
X129085952Y-99010714D01*
X129245476Y-99010714D01*
X129341190Y-98975000D01*
X129532619Y-99010714D02*
X129915476Y-99010714D01*
X129724047Y-98260714D02*
X129724047Y-99010714D01*
X128559523Y-96425000D02*
X128495714Y-96460714D01*
X128400000Y-96460714D01*
X128304285Y-96425000D01*
X128240476Y-96353571D01*
X128208571Y-96282142D01*
X128176666Y-96139285D01*
X128176666Y-96032142D01*
X128208571Y-95889285D01*
X128240476Y-95817857D01*
X128304285Y-95746428D01*
X128400000Y-95710714D01*
X128463809Y-95710714D01*
X128559523Y-95746428D01*
X128591428Y-95782142D01*
X128591428Y-96032142D01*
X128463809Y-96032142D01*
X128878571Y-95710714D02*
X128878571Y-96460714D01*
X129261428Y-95710714D01*
X129261428Y-96460714D01*
X129580476Y-95710714D02*
X129580476Y-96460714D01*
X129740000Y-96460714D01*
X129835714Y-96425000D01*
X129899523Y-96353571D01*
X129931428Y-96282142D01*
X129963333Y-96139285D01*
X129963333Y-96032142D01*
X129931428Y-95889285D01*
X129899523Y-95817857D01*
X129835714Y-95746428D01*
X129740000Y-95710714D01*
X129580476Y-95710714D01*
X128607380Y-93160714D02*
X128384047Y-93517857D01*
X128224523Y-93160714D02*
X128224523Y-93910714D01*
X128479761Y-93910714D01*
X128543571Y-93875000D01*
X128575476Y-93839285D01*
X128607380Y-93767857D01*
X128607380Y-93660714D01*
X128575476Y-93589285D01*
X128543571Y-93553571D01*
X128479761Y-93517857D01*
X128224523Y-93517857D01*
X128862619Y-93375000D02*
X129181666Y-93375000D01*
X128798809Y-93160714D02*
X129022142Y-93910714D01*
X129245476Y-93160714D01*
X129405000Y-93910714D02*
X129564523Y-93160714D01*
X129692142Y-93696428D01*
X129819761Y-93160714D01*
X129979285Y-93910714D01*
%TD*%
%LPC*%
D13*
%TO.C,REF\u002A\u002A*%
X93666726Y-144833274D03*
X92500000Y-144350000D03*
X91333274Y-144833274D03*
X90850000Y-146000000D03*
X91333274Y-147166726D03*
X92500000Y-147650000D03*
X93666726Y-147166726D03*
X94150000Y-146000000D03*
D14*
X92500000Y-146000000D03*
%TD*%
D13*
%TO.C,REF\u002A\u002A*%
X146666726Y-144833274D03*
X145500000Y-144350000D03*
X144333274Y-144833274D03*
X143850000Y-146000000D03*
X144333274Y-147166726D03*
X145500000Y-147650000D03*
X146666726Y-147166726D03*
X147150000Y-146000000D03*
D14*
X145500000Y-146000000D03*
%TD*%
D13*
%TO.C,REF\u002A\u002A*%
X146666726Y-91333274D03*
X145500000Y-90850000D03*
X144333274Y-91333274D03*
X143850000Y-92500000D03*
X144333274Y-93666726D03*
X145500000Y-94150000D03*
X146666726Y-93666726D03*
X147150000Y-92500000D03*
D14*
X145500000Y-92500000D03*
%TD*%
D13*
%TO.C,REF\u002A\u002A*%
X93666726Y-91333274D03*
X92500000Y-90850000D03*
X91333274Y-91333274D03*
X90850000Y-92500000D03*
X91333274Y-93666726D03*
X92500000Y-94150000D03*
X93666726Y-93666726D03*
X94150000Y-92500000D03*
D14*
X92500000Y-92500000D03*
%TD*%
D15*
%TO.C,SW1*%
X96190000Y-97460000D03*
X102540000Y-94920000D03*
D16*
X105500000Y-100000000D03*
X94500000Y-100000000D03*
D17*
X100000000Y-100000000D03*
%TD*%
%TO.C,SW2*%
X100000000Y-119000000D03*
D16*
X94500000Y-119000000D03*
X105500000Y-119000000D03*
D15*
X102540000Y-113920000D03*
X96190000Y-116460000D03*
%TD*%
D17*
%TO.C,SW3*%
X100000000Y-138000000D03*
D16*
X94500000Y-138000000D03*
X105500000Y-138000000D03*
D15*
X102540000Y-132920000D03*
X96190000Y-135460000D03*
%TD*%
%TO.C,SW4*%
X115190000Y-97460000D03*
X121540000Y-94920000D03*
D16*
X124500000Y-100000000D03*
X113500000Y-100000000D03*
D17*
X119000000Y-100000000D03*
%TD*%
%TO.C,SW5*%
X119000000Y-119000000D03*
D16*
X113500000Y-119000000D03*
X124500000Y-119000000D03*
D15*
X121540000Y-113920000D03*
X115190000Y-116460000D03*
%TD*%
D17*
%TO.C,SW6*%
X119000000Y-138000000D03*
D16*
X113500000Y-138000000D03*
X124500000Y-138000000D03*
D15*
X121540000Y-132920000D03*
X115190000Y-135460000D03*
%TD*%
D17*
%TO.C,SW7*%
X138000000Y-100000000D03*
D16*
X132500000Y-100000000D03*
X143500000Y-100000000D03*
D15*
X140540000Y-94920000D03*
X134190000Y-97460000D03*
%TD*%
%TO.C,SW8*%
X134190000Y-116460000D03*
X140540000Y-113920000D03*
D16*
X143500000Y-119000000D03*
X132500000Y-119000000D03*
D17*
X138000000Y-119000000D03*
%TD*%
D15*
%TO.C,SW9*%
X134190000Y-135460000D03*
X140540000Y-132920000D03*
D16*
X143500000Y-138000000D03*
X132500000Y-138000000D03*
D17*
X138000000Y-138000000D03*
%TD*%
D18*
%TO.C,D1*%
X96190000Y-108000000D03*
D19*
X103810000Y-108000000D03*
%TD*%
D18*
%TO.C,D2*%
X96190000Y-127000000D03*
D19*
X103810000Y-127000000D03*
%TD*%
%TO.C,D3*%
X103810000Y-146000000D03*
D18*
X96190000Y-146000000D03*
%TD*%
D19*
%TO.C,D4*%
X122810000Y-108000000D03*
D18*
X115190000Y-108000000D03*
%TD*%
D19*
%TO.C,D5*%
X122810000Y-127000000D03*
D18*
X115190000Y-127000000D03*
%TD*%
%TO.C,D6*%
X115190000Y-146000000D03*
D19*
X122810000Y-146000000D03*
%TD*%
D18*
%TO.C,D7*%
X134190000Y-108000000D03*
D19*
X141810000Y-108000000D03*
%TD*%
%TO.C,D8*%
X141810000Y-127000000D03*
D18*
X134190000Y-127000000D03*
%TD*%
D19*
%TO.C,D9*%
X141810000Y-146000000D03*
D18*
X134190000Y-146000000D03*
%TD*%
M02*
