M48
; DRILL file {KiCad 5.1.6-1.fc32} date Wed Jul  8 21:06:16 2020
; FORMAT={-:-/ absolute / metric / decimal}
; #@! TF.CreationDate,2020-07-08T21:06:16-05:00
; #@! TF.GenerationSoftware,Kicad,Pcbnew,5.1.6-1.fc32
; #@! TF.FileFunction,NonPlated,1,2,NPTH
FMAT,2
METRIC
T1C1.900
T2C4.000
%
G90
G05
T1
X124.5Y-119.0
X113.5Y-100.0
X94.5Y-138.0
X105.5Y-138.0
X132.5Y-100.0
X143.5Y-100.0
X113.5Y-138.0
X124.5Y-138.0
X94.5Y-119.0
X105.5Y-119.0
X94.5Y-100.0
X105.5Y-100.0
X113.5Y-119.0
X124.5Y-100.0
X132.5Y-138.0
X143.5Y-138.0
X132.5Y-119.0
X143.5Y-119.0
T2
X119.0Y-138.0
X119.0Y-119.0
X119.0Y-100.0
X100.0Y-138.0
X138.0Y-100.0
X100.0Y-119.0
X100.0Y-100.0
X138.0Y-138.0
X138.0Y-119.0
T0
M30
